<svg width="1120" height="439" viewBox="0 0 1120 439" fill="none" xmlns="http://www.w3.org/2000/svg">
<g filter="url(#filter0_d_626_943)">
<path d="M723.858 11H21.719C15.7991 11 11 15.7991 11 21.719V412.445C11 418.297 15.5262 423.065 21.3776 423.158C257.809 426.923 717.823 431.93 746.301 422.991C782.428 411.652 1167.67 322.313 1101.34 194.489C1048.43 92.5289 829.494 29.9219 725.722 11.1639C725.097 11.0509 724.493 11 723.858 11Z" fill="#EEF5FC"/>
<path d="M723.858 11H21.719C15.7991 11 11 15.7991 11 21.719V412.445C11 418.297 15.5262 423.065 21.3776 423.158C257.809 426.923 717.823 431.93 746.301 422.991C782.428 411.652 1167.67 322.313 1101.34 194.489C1048.43 92.5289 829.494 29.9219 725.722 11.1639C725.097 11.0509 724.493 11 723.858 11Z" stroke="white" stroke-width="13.7049"/>
</g>
<line x1="699" y1="7" x2="699" y2="424" stroke="white" stroke-width="10"/>
<line x1="320" y1="194" x2="703" y2="194" stroke="white" stroke-width="10"/>
<line x1="20" y1="271" x2="330" y2="271" stroke="white" stroke-width="10"/>
<path d="M126.92 135V133.44L133.74 122.7H127V121H136.06V122.56L129.22 133.3H136.12V135H126.92ZM142.995 135.24C142.048 135.24 141.195 135.02 140.435 134.58C139.688 134.14 139.095 133.527 138.655 132.74C138.228 131.94 138.015 131.02 138.015 129.98C138.015 128.913 138.235 127.987 138.675 127.2C139.115 126.4 139.715 125.78 140.475 125.34C141.235 124.9 142.088 124.68 143.035 124.68C143.995 124.68 144.848 124.9 145.595 125.34C146.342 125.78 146.928 126.393 147.355 127.18C147.795 127.967 148.015 128.893 148.015 129.96C148.015 131.027 147.795 131.953 147.355 132.74C146.928 133.527 146.335 134.14 145.575 134.58C144.815 135.02 143.955 135.24 142.995 135.24ZM142.995 133.52C143.542 133.52 144.035 133.387 144.475 133.12C144.928 132.853 145.288 132.46 145.555 131.94C145.835 131.407 145.975 130.747 145.975 129.96C145.975 129.173 145.842 128.52 145.575 128C145.308 127.467 144.948 127.067 144.495 126.8C144.055 126.533 143.568 126.4 143.035 126.4C142.502 126.4 142.008 126.533 141.555 126.8C141.102 127.067 140.735 127.467 140.455 128C140.188 128.52 140.055 129.173 140.055 129.96C140.055 130.747 140.188 131.407 140.455 131.94C140.735 132.46 141.095 132.853 141.535 133.12C141.988 133.387 142.475 133.52 142.995 133.52ZM150.368 135V124.92H152.168L152.288 126.64C152.608 126.04 153.061 125.567 153.648 125.22C154.234 124.86 154.908 124.68 155.668 124.68C156.468 124.68 157.154 124.84 157.728 125.16C158.301 125.48 158.748 125.967 159.068 126.62C159.388 127.26 159.548 128.067 159.548 129.04V135H157.548V129.24C157.548 128.307 157.341 127.6 156.928 127.12C156.514 126.64 155.914 126.4 155.128 126.4C154.608 126.4 154.141 126.527 153.728 126.78C153.314 127.02 152.981 127.38 152.728 127.86C152.488 128.34 152.368 128.927 152.368 129.62V135H150.368ZM166.666 135.24C165.706 135.24 164.853 135.02 164.106 134.58C163.359 134.14 162.773 133.527 162.346 132.74C161.933 131.953 161.726 131.04 161.726 130C161.726 128.933 161.933 128.007 162.346 127.22C162.773 126.42 163.359 125.8 164.106 125.36C164.853 124.907 165.719 124.68 166.706 124.68C167.693 124.68 168.539 124.9 169.246 125.34C169.953 125.78 170.499 126.367 170.886 127.1C171.273 127.82 171.466 128.62 171.466 129.5C171.466 129.633 171.459 129.78 171.446 129.94C171.446 130.087 171.439 130.253 171.426 130.44H163.186V129.02H169.466C169.426 128.18 169.146 127.527 168.626 127.06C168.106 126.58 167.459 126.34 166.686 126.34C166.139 126.34 165.639 126.467 165.186 126.72C164.733 126.96 164.366 127.32 164.086 127.8C163.819 128.267 163.686 128.86 163.686 129.58V130.14C163.686 130.887 163.819 131.52 164.086 132.04C164.366 132.547 164.733 132.933 165.186 133.2C165.639 133.453 166.133 133.58 166.666 133.58C167.306 133.58 167.833 133.44 168.246 133.16C168.659 132.88 168.966 132.5 169.166 132.02H171.166C170.993 132.633 170.699 133.187 170.286 133.68C169.873 134.16 169.359 134.54 168.746 134.82C168.146 135.1 167.453 135.24 166.666 135.24ZM173.808 129.94V128.26H181.888V129.94H173.808ZM191.183 135V132.14H184.163V130.58L190.863 121H193.163V130.4H195.163V132.14H193.163V135H191.183ZM186.343 130.4H191.303V123.2L186.343 130.4Z" fill="black"/>
<path d="M129.92 350V348.44L136.74 337.7H130V336H139.06V337.56L132.22 348.3H139.12V350H129.92ZM145.995 350.24C145.048 350.24 144.195 350.02 143.435 349.58C142.688 349.14 142.095 348.527 141.655 347.74C141.228 346.94 141.015 346.02 141.015 344.98C141.015 343.913 141.235 342.987 141.675 342.2C142.115 341.4 142.715 340.78 143.475 340.34C144.235 339.9 145.088 339.68 146.035 339.68C146.995 339.68 147.848 339.9 148.595 340.34C149.342 340.78 149.928 341.393 150.355 342.18C150.795 342.967 151.015 343.893 151.015 344.96C151.015 346.027 150.795 346.953 150.355 347.74C149.928 348.527 149.335 349.14 148.575 349.58C147.815 350.02 146.955 350.24 145.995 350.24ZM145.995 348.52C146.542 348.52 147.035 348.387 147.475 348.12C147.928 347.853 148.288 347.46 148.555 346.94C148.835 346.407 148.975 345.747 148.975 344.96C148.975 344.173 148.842 343.52 148.575 343C148.308 342.467 147.948 342.067 147.495 341.8C147.055 341.533 146.568 341.4 146.035 341.4C145.502 341.4 145.008 341.533 144.555 341.8C144.102 342.067 143.735 342.467 143.455 343C143.188 343.52 143.055 344.173 143.055 344.96C143.055 345.747 143.188 346.407 143.455 346.94C143.735 347.46 144.095 347.853 144.535 348.12C144.988 348.387 145.475 348.52 145.995 348.52ZM153.368 350V339.92H155.168L155.288 341.64C155.608 341.04 156.061 340.567 156.648 340.22C157.234 339.86 157.908 339.68 158.668 339.68C159.468 339.68 160.154 339.84 160.728 340.16C161.301 340.48 161.748 340.967 162.068 341.62C162.388 342.26 162.548 343.067 162.548 344.04V350H160.548V344.24C160.548 343.307 160.341 342.6 159.928 342.12C159.514 341.64 158.914 341.4 158.128 341.4C157.608 341.4 157.141 341.527 156.728 341.78C156.314 342.02 155.981 342.38 155.728 342.86C155.488 343.34 155.368 343.927 155.368 344.62V350H153.368ZM169.666 350.24C168.706 350.24 167.853 350.02 167.106 349.58C166.359 349.14 165.773 348.527 165.346 347.74C164.933 346.953 164.726 346.04 164.726 345C164.726 343.933 164.933 343.007 165.346 342.22C165.773 341.42 166.359 340.8 167.106 340.36C167.853 339.907 168.719 339.68 169.706 339.68C170.693 339.68 171.539 339.9 172.246 340.34C172.953 340.78 173.499 341.367 173.886 342.1C174.273 342.82 174.466 343.62 174.466 344.5C174.466 344.633 174.459 344.78 174.446 344.94C174.446 345.087 174.439 345.253 174.426 345.44H166.186V344.02H172.466C172.426 343.18 172.146 342.527 171.626 342.06C171.106 341.58 170.459 341.34 169.686 341.34C169.139 341.34 168.639 341.467 168.186 341.72C167.733 341.96 167.366 342.32 167.086 342.8C166.819 343.267 166.686 343.86 166.686 344.58V345.14C166.686 345.887 166.819 346.52 167.086 347.04C167.366 347.547 167.733 347.933 168.186 348.2C168.639 348.453 169.133 348.58 169.666 348.58C170.306 348.58 170.833 348.44 171.246 348.16C171.659 347.88 171.966 347.5 172.166 347.02H174.166C173.993 347.633 173.699 348.187 173.286 348.68C172.873 349.16 172.359 349.54 171.746 349.82C171.146 350.1 170.453 350.24 169.666 350.24ZM176.808 344.94V343.26H184.888V344.94H176.808ZM192.643 350.24C191.657 350.24 190.81 350.067 190.103 349.72C189.397 349.36 188.837 348.88 188.423 348.28C188.01 347.667 187.757 346.98 187.663 346.22H189.623C189.757 346.9 190.09 347.46 190.623 347.9C191.157 348.327 191.83 348.54 192.643 348.54C193.257 348.54 193.783 348.393 194.223 348.1C194.663 347.807 195.003 347.413 195.243 346.92C195.483 346.427 195.603 345.88 195.603 345.28C195.603 344.64 195.477 344.087 195.223 343.62C194.983 343.14 194.643 342.767 194.203 342.5C193.777 342.233 193.277 342.1 192.703 342.1C192.01 342.1 191.41 342.26 190.903 342.58C190.41 342.887 190.05 343.28 189.823 343.76H187.883L189.043 336H196.583V337.74H190.583L189.843 341.66C190.163 341.3 190.59 341.007 191.123 340.78C191.67 340.54 192.29 340.42 192.983 340.42C193.69 340.42 194.323 340.547 194.883 340.8C195.443 341.053 195.917 341.4 196.303 341.84C196.703 342.28 197.003 342.793 197.203 343.38C197.417 343.967 197.523 344.587 197.523 345.24C197.523 345.947 197.41 346.6 197.183 347.2C196.957 347.8 196.63 348.333 196.203 348.8C195.79 349.253 195.277 349.607 194.663 349.86C194.063 350.113 193.39 350.24 192.643 350.24Z" fill="black"/>
<path d="M460.92 307V305.44L467.74 294.7H461V293H470.06V294.56L463.22 305.3H470.12V307H460.92ZM476.995 307.24C476.048 307.24 475.195 307.02 474.435 306.58C473.688 306.14 473.095 305.527 472.655 304.74C472.228 303.94 472.015 303.02 472.015 301.98C472.015 300.913 472.235 299.987 472.675 299.2C473.115 298.4 473.715 297.78 474.475 297.34C475.235 296.9 476.088 296.68 477.035 296.68C477.995 296.68 478.848 296.9 479.595 297.34C480.342 297.78 480.928 298.393 481.355 299.18C481.795 299.967 482.015 300.893 482.015 301.96C482.015 303.027 481.795 303.953 481.355 304.74C480.928 305.527 480.335 306.14 479.575 306.58C478.815 307.02 477.955 307.24 476.995 307.24ZM476.995 305.52C477.542 305.52 478.035 305.387 478.475 305.12C478.928 304.853 479.288 304.46 479.555 303.94C479.835 303.407 479.975 302.747 479.975 301.96C479.975 301.173 479.842 300.52 479.575 300C479.308 299.467 478.948 299.067 478.495 298.8C478.055 298.533 477.568 298.4 477.035 298.4C476.502 298.4 476.008 298.533 475.555 298.8C475.102 299.067 474.735 299.467 474.455 300C474.188 300.52 474.055 301.173 474.055 301.96C474.055 302.747 474.188 303.407 474.455 303.94C474.735 304.46 475.095 304.853 475.535 305.12C475.988 305.387 476.475 305.52 476.995 305.52ZM484.368 307V296.92H486.168L486.288 298.64C486.608 298.04 487.061 297.567 487.648 297.22C488.234 296.86 488.908 296.68 489.668 296.68C490.468 296.68 491.154 296.84 491.728 297.16C492.301 297.48 492.748 297.967 493.068 298.62C493.388 299.26 493.548 300.067 493.548 301.04V307H491.548V301.24C491.548 300.307 491.341 299.6 490.928 299.12C490.514 298.64 489.914 298.4 489.128 298.4C488.608 298.4 488.141 298.527 487.728 298.78C487.314 299.02 486.981 299.38 486.728 299.86C486.488 300.34 486.368 300.927 486.368 301.62V307H484.368ZM500.666 307.24C499.706 307.24 498.853 307.02 498.106 306.58C497.359 306.14 496.773 305.527 496.346 304.74C495.933 303.953 495.726 303.04 495.726 302C495.726 300.933 495.933 300.007 496.346 299.22C496.773 298.42 497.359 297.8 498.106 297.36C498.853 296.907 499.719 296.68 500.706 296.68C501.693 296.68 502.539 296.9 503.246 297.34C503.953 297.78 504.499 298.367 504.886 299.1C505.273 299.82 505.466 300.62 505.466 301.5C505.466 301.633 505.459 301.78 505.446 301.94C505.446 302.087 505.439 302.253 505.426 302.44H497.186V301.02H503.466C503.426 300.18 503.146 299.527 502.626 299.06C502.106 298.58 501.459 298.34 500.686 298.34C500.139 298.34 499.639 298.467 499.186 298.72C498.733 298.96 498.366 299.32 498.086 299.8C497.819 300.267 497.686 300.86 497.686 301.58V302.14C497.686 302.887 497.819 303.52 498.086 304.04C498.366 304.547 498.733 304.933 499.186 305.2C499.639 305.453 500.133 305.58 500.666 305.58C501.306 305.58 501.833 305.44 502.246 305.16C502.659 304.88 502.966 304.5 503.166 304.02H505.166C504.993 304.633 504.699 305.187 504.286 305.68C503.873 306.16 503.359 306.54 502.746 306.82C502.146 307.1 501.453 307.24 500.666 307.24ZM507.808 301.94V300.26H515.888V301.94H507.808ZM518.543 307V305.56C519.477 304.84 520.363 304.113 521.203 303.38C522.043 302.647 522.79 301.92 523.443 301.2C524.11 300.467 524.63 299.753 525.003 299.06C525.377 298.353 525.563 297.68 525.563 297.04C525.563 296.587 525.483 296.167 525.323 295.78C525.163 295.393 524.91 295.08 524.563 294.84C524.217 294.587 523.743 294.46 523.143 294.46C522.57 294.46 522.09 294.587 521.703 294.84C521.33 295.093 521.043 295.433 520.843 295.86C520.657 296.273 520.563 296.733 520.563 297.24H518.623C518.637 296.28 518.843 295.467 519.243 294.8C519.643 294.133 520.183 293.627 520.863 293.28C521.557 292.933 522.33 292.76 523.183 292.76C524.077 292.76 524.85 292.927 525.503 293.26C526.157 293.58 526.663 294.053 527.023 294.68C527.383 295.293 527.563 296.047 527.563 296.94C527.563 297.58 527.437 298.22 527.183 298.86C526.93 299.487 526.583 300.1 526.143 300.7C525.717 301.3 525.237 301.88 524.703 302.44C524.17 302.987 523.617 303.507 523.043 304C522.483 304.493 521.943 304.94 521.423 305.34H528.003V307H518.543Z" fill="black"/>
<path d="M472.92 105V103.44L479.74 92.7H473V91H482.06V92.56L475.22 103.3H482.12V105H472.92ZM488.995 105.24C488.048 105.24 487.195 105.02 486.435 104.58C485.688 104.14 485.095 103.527 484.655 102.74C484.228 101.94 484.015 101.02 484.015 99.98C484.015 98.9133 484.235 97.9867 484.675 97.2C485.115 96.4 485.715 95.78 486.475 95.34C487.235 94.9 488.088 94.68 489.035 94.68C489.995 94.68 490.848 94.9 491.595 95.34C492.342 95.78 492.928 96.3933 493.355 97.18C493.795 97.9667 494.015 98.8933 494.015 99.96C494.015 101.027 493.795 101.953 493.355 102.74C492.928 103.527 492.335 104.14 491.575 104.58C490.815 105.02 489.955 105.24 488.995 105.24ZM488.995 103.52C489.542 103.52 490.035 103.387 490.475 103.12C490.928 102.853 491.288 102.46 491.555 101.94C491.835 101.407 491.975 100.747 491.975 99.96C491.975 99.1733 491.842 98.52 491.575 98C491.308 97.4667 490.948 97.0667 490.495 96.8C490.055 96.5333 489.568 96.4 489.035 96.4C488.502 96.4 488.008 96.5333 487.555 96.8C487.102 97.0667 486.735 97.4667 486.455 98C486.188 98.52 486.055 99.1733 486.055 99.96C486.055 100.747 486.188 101.407 486.455 101.94C486.735 102.46 487.095 102.853 487.535 103.12C487.988 103.387 488.475 103.52 488.995 103.52ZM496.368 105V94.92H498.168L498.288 96.64C498.608 96.04 499.061 95.5667 499.648 95.22C500.234 94.86 500.908 94.68 501.668 94.68C502.468 94.68 503.154 94.84 503.728 95.16C504.301 95.48 504.748 95.9667 505.068 96.62C505.388 97.26 505.548 98.0667 505.548 99.04V105H503.548V99.24C503.548 98.3067 503.341 97.6 502.928 97.12C502.514 96.64 501.914 96.4 501.128 96.4C500.608 96.4 500.141 96.5267 499.728 96.78C499.314 97.02 498.981 97.38 498.728 97.86C498.488 98.34 498.368 98.9267 498.368 99.62V105H496.368ZM512.666 105.24C511.706 105.24 510.853 105.02 510.106 104.58C509.359 104.14 508.773 103.527 508.346 102.74C507.933 101.953 507.726 101.04 507.726 100C507.726 98.9333 507.933 98.0067 508.346 97.22C508.773 96.42 509.359 95.8 510.106 95.36C510.853 94.9067 511.719 94.68 512.706 94.68C513.693 94.68 514.539 94.9 515.246 95.34C515.953 95.78 516.499 96.3667 516.886 97.1C517.273 97.82 517.466 98.62 517.466 99.5C517.466 99.6333 517.459 99.78 517.446 99.94C517.446 100.087 517.439 100.253 517.426 100.44H509.186V99.02H515.466C515.426 98.18 515.146 97.5267 514.626 97.06C514.106 96.58 513.459 96.34 512.686 96.34C512.139 96.34 511.639 96.4667 511.186 96.72C510.733 96.96 510.366 97.32 510.086 97.8C509.819 98.2667 509.686 98.86 509.686 99.58V100.14C509.686 100.887 509.819 101.52 510.086 102.04C510.366 102.547 510.733 102.933 511.186 103.2C511.639 103.453 512.133 103.58 512.666 103.58C513.306 103.58 513.833 103.44 514.246 103.16C514.659 102.88 514.966 102.5 515.166 102.02H517.166C516.993 102.633 516.699 103.187 516.286 103.68C515.873 104.16 515.359 104.54 514.746 104.82C514.146 105.1 513.453 105.24 512.666 105.24ZM519.808 99.94V98.26H527.888V99.94H519.808ZM535.263 105.24C534.37 105.24 533.55 105.08 532.803 104.76C532.07 104.427 531.483 103.933 531.043 103.28C530.617 102.613 530.39 101.78 530.363 100.78H532.363C532.377 101.287 532.497 101.747 532.723 102.16C532.95 102.573 533.277 102.907 533.703 103.16C534.143 103.4 534.663 103.52 535.263 103.52C535.863 103.52 536.363 103.407 536.763 103.18C537.177 102.953 537.483 102.647 537.683 102.26C537.897 101.873 538.003 101.44 538.003 100.96C538.003 100.36 537.857 99.8733 537.563 99.5C537.283 99.1267 536.897 98.8467 536.403 98.66C535.923 98.4733 535.383 98.38 534.783 98.38H533.743V96.7H534.783C535.623 96.7 536.29 96.5067 536.783 96.12C537.29 95.7333 537.543 95.1867 537.543 94.48C537.543 93.8933 537.35 93.4133 536.963 93.04C536.577 92.6667 536.01 92.48 535.263 92.48C534.517 92.48 533.923 92.6933 533.483 93.12C533.057 93.5467 532.817 94.0867 532.763 94.74H530.783C530.823 93.9533 531.03 93.26 531.403 92.66C531.79 92.0467 532.31 91.58 532.963 91.26C533.63 90.9267 534.397 90.76 535.263 90.76C536.197 90.76 536.977 90.9267 537.603 91.26C538.243 91.58 538.723 92.0133 539.043 92.56C539.377 93.1067 539.543 93.7067 539.543 94.36C539.543 94.8533 539.45 95.3133 539.263 95.74C539.077 96.1533 538.81 96.5133 538.463 96.82C538.117 97.1267 537.697 97.3467 537.203 97.48C537.737 97.5867 538.217 97.7933 538.643 98.1C539.07 98.4067 539.403 98.8067 539.643 99.3C539.883 99.78 540.003 100.34 540.003 100.98C540.003 101.74 539.823 102.447 539.463 103.1C539.103 103.74 538.57 104.26 537.863 104.66C537.17 105.047 536.303 105.24 535.263 105.24Z" fill="black"/>
<path d="M858.92 199V197.44L865.74 186.7H859V185H868.06V186.56L861.22 197.3H868.12V199H858.92ZM874.995 199.24C874.048 199.24 873.195 199.02 872.435 198.58C871.688 198.14 871.095 197.527 870.655 196.74C870.228 195.94 870.015 195.02 870.015 193.98C870.015 192.913 870.235 191.987 870.675 191.2C871.115 190.4 871.715 189.78 872.475 189.34C873.235 188.9 874.088 188.68 875.035 188.68C875.995 188.68 876.848 188.9 877.595 189.34C878.342 189.78 878.928 190.393 879.355 191.18C879.795 191.967 880.015 192.893 880.015 193.96C880.015 195.027 879.795 195.953 879.355 196.74C878.928 197.527 878.335 198.14 877.575 198.58C876.815 199.02 875.955 199.24 874.995 199.24ZM874.995 197.52C875.542 197.52 876.035 197.387 876.475 197.12C876.928 196.853 877.288 196.46 877.555 195.94C877.835 195.407 877.975 194.747 877.975 193.96C877.975 193.173 877.842 192.52 877.575 192C877.308 191.467 876.948 191.067 876.495 190.8C876.055 190.533 875.568 190.4 875.035 190.4C874.502 190.4 874.008 190.533 873.555 190.8C873.102 191.067 872.735 191.467 872.455 192C872.188 192.52 872.055 193.173 872.055 193.96C872.055 194.747 872.188 195.407 872.455 195.94C872.735 196.46 873.095 196.853 873.535 197.12C873.988 197.387 874.475 197.52 874.995 197.52ZM882.368 199V188.92H884.168L884.288 190.64C884.608 190.04 885.061 189.567 885.648 189.22C886.234 188.86 886.908 188.68 887.668 188.68C888.468 188.68 889.154 188.84 889.728 189.16C890.301 189.48 890.748 189.967 891.068 190.62C891.388 191.26 891.548 192.067 891.548 193.04V199H889.548V193.24C889.548 192.307 889.341 191.6 888.928 191.12C888.514 190.64 887.914 190.4 887.128 190.4C886.608 190.4 886.141 190.527 885.728 190.78C885.314 191.02 884.981 191.38 884.728 191.86C884.488 192.34 884.368 192.927 884.368 193.62V199H882.368ZM898.666 199.24C897.706 199.24 896.853 199.02 896.106 198.58C895.359 198.14 894.773 197.527 894.346 196.74C893.933 195.953 893.726 195.04 893.726 194C893.726 192.933 893.933 192.007 894.346 191.22C894.773 190.42 895.359 189.8 896.106 189.36C896.853 188.907 897.719 188.68 898.706 188.68C899.693 188.68 900.539 188.9 901.246 189.34C901.953 189.78 902.499 190.367 902.886 191.1C903.273 191.82 903.466 192.62 903.466 193.5C903.466 193.633 903.459 193.78 903.446 193.94C903.446 194.087 903.439 194.253 903.426 194.44H895.186V193.02H901.466C901.426 192.18 901.146 191.527 900.626 191.06C900.106 190.58 899.459 190.34 898.686 190.34C898.139 190.34 897.639 190.467 897.186 190.72C896.733 190.96 896.366 191.32 896.086 191.8C895.819 192.267 895.686 192.86 895.686 193.58V194.14C895.686 194.887 895.819 195.52 896.086 196.04C896.366 196.547 896.733 196.933 897.186 197.2C897.639 197.453 898.133 197.58 898.666 197.58C899.306 197.58 899.833 197.44 900.246 197.16C900.659 196.88 900.966 196.5 901.166 196.02H903.166C902.993 196.633 902.699 197.187 902.286 197.68C901.873 198.16 901.359 198.54 900.746 198.82C900.146 199.1 899.453 199.24 898.666 199.24ZM905.808 193.94V192.26H913.888V193.94H905.808ZM918.423 199V187.26L915.983 187.88V186.38L919.163 185H920.463V199H918.423Z" fill="black"/>
<line x1="325" y1="7" x2="325" y2="424" stroke="white" stroke-width="10"/>
<defs>
<filter id="filter0_d_626_943" x="0.148438" y="0.147461" width="1119.71" height="438.705" filterUnits="userSpaceOnUse" color-interpolation-filters="sRGB">
<feFlood flood-opacity="0" result="BackgroundImageFix"/>
<feColorMatrix in="SourceAlpha" type="matrix" values="0 0 0 0 0 0 0 0 0 0 0 0 0 0 0 0 0 0 127 0" result="hardAlpha"/>
<feOffset/>
<feGaussianBlur stdDeviation="2"/>
<feComposite in2="hardAlpha" operator="out"/>
<feColorMatrix type="matrix" values="0 0 0 0 0 0 0 0 0 0 0 0 0 0 0 0 0 0 0.25 0"/>
<feBlend mode="normal" in2="BackgroundImageFix" result="effect1_dropShadow_626_943"/>
<feBlend mode="normal" in="SourceGraphic" in2="effect1_dropShadow_626_943" result="shape"/>
</filter>
</defs>
</svg>
