<svg width="40" height="40" viewBox="0 0 40 40" fill="none" xmlns="http://www.w3.org/2000/svg">
<g id="expand_more">
<mask id="mask0_1728_13296" style="mask-type:alpha" maskUnits="userSpaceOnUse" x="0" y="-1" width="40" height="41">
<rect id="Bounding box" y="-0.0078125" width="40" height="40" fill="#D9D9D9"/>
</mask>
<g mask="url(#mask0_1728_13296)">
<path id="expand_more_2" d="M20.0009 25.0477C19.8157 25.0477 19.6444 25.0176 19.487 24.9575C19.3296 24.8973 19.1768 24.7931 19.0286 24.645L10.9731 16.5894C10.7046 16.3209 10.5703 15.9968 10.5703 15.6172C10.5703 15.2375 10.7046 14.9135 10.9731 14.645C11.2416 14.3765 11.5703 14.2422 11.9592 14.2422C12.3481 14.2422 12.6768 14.3765 12.9453 14.645L20.0009 21.7006L27.0564 14.645C27.3249 14.3765 27.649 14.2422 28.0286 14.2422C28.4083 14.2422 28.7323 14.3765 29.0009 14.645C29.2694 14.9135 29.4036 15.2422 29.4036 15.6311C29.4036 16.02 29.2694 16.3487 29.0009 16.6172L20.9731 24.645C20.8249 24.7931 20.6721 24.8973 20.5147 24.9575C20.3573 25.0176 20.186 25.0477 20.0009 25.0477Z" fill="#252528"/>
</g>
</g>
</svg>
