<svg width="21" height="20" viewBox="0 0 21 20" fill="none" xmlns="http://www.w3.org/2000/svg">
<g clip-path="url(#clip0_660_1142)">
<path d="M9.97656 6.75005L12.8074 9.58086L12.8209 9.43258C12.8209 7.94526 11.6122 6.73657 10.1248 6.73657L9.97656 6.75005Z" fill="#47AFFF"/>
<path d="M10.1261 4.93912C12.6064 4.93912 14.6194 6.95215 14.6194 9.43248C14.6194 10.0121 14.5026 10.5648 14.3004 11.0725L16.929 13.7011C18.286 12.5688 19.3554 11.104 20.016 9.43248C18.4568 5.48734 14.6239 2.69246 10.1261 2.69246C8.86796 2.69246 7.66377 2.91711 6.54492 3.32151L8.48605 5.25813C8.99374 5.06044 9.54642 4.93912 10.1261 4.93912Z" fill="#47AFFF"/>
<path d="M1.13889 2.49099L3.18786 4.53995L3.59677 4.94886C2.11396 6.10815 0.941197 7.64938 0.240234 9.43321C1.79495 13.3784 5.63225 16.1732 10.1256 16.1732C11.5186 16.1732 12.8486 15.9036 14.0663 15.4138L14.4482 15.7958L17.0679 18.4199L18.2137 17.2786L2.28469 1.34518L1.13889 2.49099ZM6.10856 7.45615L7.497 8.84459C7.45656 9.03782 7.42961 9.23101 7.42961 9.43321C7.42961 10.9205 8.6383 12.1292 10.1256 12.1292C10.3278 12.1292 10.521 12.1023 10.7098 12.0618L12.0982 13.4503C11.5006 13.7468 10.8356 13.9266 10.1256 13.9266C7.64529 13.9266 5.63225 11.9135 5.63225 9.43321C5.63225 8.72327 5.812 8.05824 6.10856 7.45615Z" fill="#47AFFF"/>
</g>
<defs>
<clipPath id="clip0_660_1142">
<rect width="19.7752" height="19.7752" fill="white" transform="translate(0.240234 -0.00205612)"/>
</clipPath>
</defs>
</svg>
