<svg width="131" height="48" viewBox="0 0 131 48" fill="none" xmlns="http://www.w3.org/2000/svg">
<rect x="2.57366" y="1.06258" width="96.6905" height="19.4271" rx="9.71354" stroke="#0B0B0B" stroke-width="1.18639"/>
<path d="M99.8574 10.6735L128.921 10.8788" stroke="black" stroke-width="1.18639"/>
<line x1="98.375" y1="10.7004" x2="99.858" y2="10.7004" stroke="white" stroke-width="1.18639"/>
<path d="M5.44397 34.8818V40.1739H3.76508V27.1078H8.21779C9.34921 27.1078 10.3103 27.4849 11.1011 28.2392C11.904 28.9935 12.3055 29.912 12.3055 30.9948C12.3055 32.1019 11.904 33.0265 11.1011 33.7686C10.3225 34.5107 9.36138 34.8818 8.21779 34.8818H5.44397ZM5.44397 28.7137V33.2759H8.25428C8.92341 33.2759 9.47695 33.0508 9.91492 32.6007C10.3651 32.1505 10.5901 31.6152 10.5901 30.9948C10.5901 30.3865 10.3651 29.8573 9.91492 29.4071C9.47695 28.9448 8.92341 28.7137 8.25428 28.7137H5.44397ZM15.4526 40.1739H13.7737V31.232H15.3796V32.6919H15.4526C15.6229 32.2175 15.9696 31.816 16.4928 31.4875C17.0281 31.1469 17.5512 30.9765 18.0621 30.9765C18.5488 30.9765 18.9624 31.0495 19.3031 31.1955L18.7921 32.8197C18.5853 32.7345 18.2568 32.6919 17.8067 32.6919C17.174 32.6919 16.6205 32.9474 16.146 33.4584C15.6837 33.9693 15.4526 34.5655 15.4526 35.2467V40.1739ZM19.3397 35.703C19.3397 34.3282 19.7716 33.1907 20.6354 32.2904C21.5113 31.3902 22.6123 30.94 23.9384 30.94C25.2645 30.94 26.3594 31.3902 27.2232 32.2904C28.0991 33.1907 28.5371 34.3282 28.5371 35.703C28.5371 37.0899 28.0991 38.2274 27.2232 39.1155C26.3594 40.0158 25.2645 40.4659 23.9384 40.4659C22.6123 40.4659 21.5113 40.0158 20.6354 39.1155C19.7716 38.2152 19.3397 37.0777 19.3397 35.703ZM21.0186 35.703C21.0186 36.6641 21.2984 37.4427 21.858 38.0388C22.4177 38.6349 23.1111 38.933 23.9384 38.933C24.7657 38.933 25.4591 38.6349 26.0188 38.0388C26.5784 37.4427 26.8582 36.6641 26.8582 35.703C26.8582 34.754 26.5784 33.9815 26.0188 33.3854C25.447 32.7771 24.7535 32.4729 23.9384 32.4729C23.1233 32.4729 22.4298 32.7771 21.858 33.3854C21.2984 33.9815 21.0186 34.754 21.0186 35.703ZM32.1446 28.148C32.1446 28.4765 32.0291 28.7563 31.7979 28.9874C31.5668 29.2186 31.287 29.3341 30.9585 29.3341C30.63 29.3341 30.3502 29.2186 30.119 28.9874C29.8879 28.7563 29.7723 28.4765 29.7723 28.148C29.7723 27.8195 29.8879 27.5397 30.119 27.3085C30.3502 27.0774 30.63 26.9618 30.9585 26.9618C31.287 26.9618 31.5668 27.0774 31.7979 27.3085C32.0291 27.5397 32.1446 27.8195 32.1446 28.148ZM29.1153 44.2981C28.7504 44.2981 28.4219 44.2373 28.1299 44.1157L28.5679 42.6558C28.7625 42.7287 28.9268 42.7652 29.0606 42.7652C29.7419 42.7652 30.0947 42.3455 30.119 41.5061V31.232H31.7979V41.2506C31.7979 43.2823 30.9037 44.2981 29.1153 44.2981ZM37.9084 40.4659C36.5945 40.4659 35.5117 40.0158 34.6601 39.1155C33.8085 38.2152 33.3827 37.0777 33.3827 35.703C33.3827 34.3404 33.7964 33.209 34.6236 32.3087C35.4509 31.3963 36.5093 30.94 37.7989 30.94C39.125 30.94 40.1773 31.3719 40.956 32.2357C41.7467 33.0873 42.1421 34.2856 42.1421 35.8307L42.1239 36.0132H35.0981C35.1224 36.8891 35.4144 37.5948 35.974 38.1301C36.5337 38.6654 37.2028 38.933 37.9814 38.933C39.052 38.933 39.8914 38.3977 40.4997 37.3271L41.9961 38.0571C41.5947 38.8113 41.035 39.4014 40.3173 39.8272C39.6116 40.253 38.8087 40.4659 37.9084 40.4659ZM35.2258 34.6263H40.3537C40.3051 34.0058 40.0496 33.4949 39.5873 33.0934C39.1372 32.6798 38.5289 32.4729 37.7624 32.4729C37.1298 32.4729 36.5823 32.6676 36.12 33.0569C35.6699 33.4462 35.3718 33.9693 35.2258 34.6263ZM47.8543 40.4659C46.5282 40.4659 45.4272 40.0158 44.5513 39.1155C43.6875 38.1909 43.2556 37.0534 43.2556 35.703C43.2556 34.3282 43.6875 33.1907 44.5513 32.2904C45.4272 31.3902 46.5282 30.94 47.8543 30.94C48.7667 30.94 49.5636 31.1712 50.2449 31.6335C50.9262 32.0836 51.4371 32.7102 51.7778 33.5131L50.2449 34.1518C49.7704 33.0326 48.937 32.4729 47.7448 32.4729C46.9783 32.4729 46.3153 32.7832 45.7557 33.4036C45.2082 34.0241 44.9345 34.7905 44.9345 35.703C44.9345 36.6154 45.2082 37.3819 45.7557 38.0023C46.3153 38.6228 46.9783 38.933 47.7448 38.933C48.9735 38.933 49.8373 38.3734 50.3361 37.2541L51.8325 37.8928C51.504 38.6958 50.987 39.3284 50.2814 39.7907C49.5879 40.2408 48.7789 40.4659 47.8543 40.4659ZM56.752 40.3199C56.022 40.3199 55.4137 40.0948 54.9271 39.6447C54.4526 39.1946 54.2093 38.568 54.1972 37.7651V32.7649H52.6278V31.232H54.1972V28.4947H55.8761V31.232H58.0659V32.7649H55.8761V37.2176C55.8761 37.8137 55.9916 38.2213 56.2228 38.4403C56.4539 38.6471 56.7155 38.7505 57.0075 38.7505C57.1413 38.7505 57.269 38.7383 57.3907 38.714C57.5245 38.6775 57.6462 38.6349 57.7557 38.5863L58.2849 40.0827C57.8469 40.2408 57.336 40.3199 56.752 40.3199ZM65.6436 40.1739H63.9647V27.1078H66.0085L72.3591 37.2724H72.4321L72.3591 34.754V27.1078H74.038V40.1739H72.2861L65.6436 29.5166H65.5706L65.6436 32.035V40.1739ZM77.3345 37.4366C77.3345 37.8746 77.517 38.2395 77.8819 38.5315C78.2591 38.8235 78.6971 38.9695 79.1959 38.9695C79.9015 38.9695 80.528 38.7079 81.0755 38.1848C81.6351 37.6617 81.9149 37.0473 81.9149 36.3417C81.3918 35.928 80.6618 35.7212 79.7251 35.7212C79.0438 35.7212 78.472 35.8855 78.0097 36.2139C77.5595 36.5424 77.3345 36.95 77.3345 37.4366ZM79.5061 30.94C80.747 30.94 81.7263 31.2746 82.4441 31.9437C83.1619 32.6007 83.5208 33.507 83.5208 34.6628V40.1739H81.9149V38.933H81.8419C81.1485 39.9549 80.2239 40.4659 79.0681 40.4659C78.0827 40.4659 77.2554 40.1739 76.5863 39.59C75.9293 39.006 75.6008 38.276 75.6008 37.4001C75.6008 36.4755 75.9476 35.7395 76.641 35.192C77.3466 34.6445 78.2834 34.3708 79.4513 34.3708C80.4489 34.3708 81.2701 34.5533 81.9149 34.9183V34.535C81.9149 33.9511 81.6838 33.4584 81.2215 33.0569C80.7592 32.6433 80.2178 32.4364 79.5973 32.4364C78.6606 32.4364 77.9184 32.8318 77.371 33.6226L75.8928 32.6919C76.7079 31.524 77.9124 30.94 79.5061 30.94ZM87.0933 40.1739H85.4144V31.232H87.0203V32.6919H87.0933C87.2636 32.2175 87.6103 31.816 88.1335 31.4875C88.6688 31.1469 89.1919 30.9765 89.7029 30.9765C90.1895 30.9765 90.6031 31.0495 90.9438 31.1955L90.4328 32.8197C90.226 32.7345 89.8975 32.6919 89.4474 32.6919C88.8148 32.6919 88.2612 32.9474 87.7868 33.4584C87.3244 33.9693 87.0933 34.5655 87.0933 35.2467V40.1739ZM104.887 31.232L102.003 40.1739H100.288L98.0617 33.3124L95.8536 40.1739H94.1564L91.2731 31.232H93.025L95.0141 37.9841H95.0324L97.2405 31.232H98.9741L101.182 37.9841H101.2L103.171 31.232H104.887ZM105.98 27.1078H107.659V31.232L107.586 32.4729H107.659C107.914 32.035 108.304 31.67 108.827 31.378C109.362 31.086 109.916 30.94 110.487 30.94C111.582 30.94 112.422 31.2563 113.006 31.889C113.602 32.5094 113.9 33.3975 113.9 34.5533V40.1739H112.221V34.8818C112.221 33.2759 111.509 32.4729 110.086 32.4729C109.405 32.4729 108.827 32.7588 108.352 33.3306C107.89 33.8903 107.659 34.5472 107.659 35.3015V40.1739H105.98V27.1078ZM117.004 37.4366C117.004 37.8746 117.187 38.2395 117.552 38.5315C117.929 38.8235 118.367 38.9695 118.866 38.9695C119.571 38.9695 120.198 38.7079 120.745 38.1848C121.305 37.6617 121.585 37.0473 121.585 36.3417C121.062 35.928 120.332 35.7212 119.395 35.7212C118.713 35.7212 118.142 35.8855 117.679 36.2139C117.229 36.5424 117.004 36.95 117.004 37.4366ZM119.176 30.94C120.417 30.94 121.396 31.2746 122.114 31.9437C122.832 32.6007 123.191 33.507 123.191 34.6628V40.1739H121.585V38.933H121.512C120.818 39.9549 119.894 40.4659 118.738 40.4659C117.752 40.4659 116.925 40.1739 116.256 39.59C115.599 39.006 115.271 38.276 115.271 37.4001C115.271 36.4755 115.617 35.7395 116.311 35.192C117.016 34.6445 117.953 34.3708 119.121 34.3708C120.119 34.3708 120.94 34.5533 121.585 34.9183V34.535C121.585 33.9511 121.353 33.4584 120.891 33.0569C120.429 32.6433 119.887 32.4364 119.267 32.4364C118.33 32.4364 117.588 32.8318 117.041 33.6226L115.563 32.6919C116.378 31.524 117.582 30.94 119.176 30.94ZM126.763 27.1078V40.1739H125.084V27.1078H126.763Z" fill="black"/>
</svg>
