<svg xmlns="http://www.w3.org/2000/svg" width="18" height="19" viewBox="0 0 18 19" fill="red">
<path d="M14.1676 8.57259C13.7848 8.57259 13.4745 8.26227 13.4745 7.87947V2.889C13.4745 2.35308 13.04 1.91863 12.5041 1.91863H5.29564C4.75972 1.91863 4.32527 2.35308 4.32527 2.889V7.87947C4.32527 8.26227 4.01495 8.57259 3.63215 8.57259H2.52315C1.98723 8.57259 1.55278 9.00704 1.55278 9.54296V15.6424C1.55278 16.1783 1.98723 16.6128 2.52315 16.6128H15.2766C15.8125 16.6128 16.247 16.1783 16.247 15.6424V9.54296C16.247 9.00704 15.8125 8.57259 15.2766 8.57259H14.1676ZM5.15701 3.44349C5.15701 3.06069 5.46733 2.75037 5.85013 2.75037H11.9496C12.3324 2.75037 12.6427 3.06069 12.6427 3.44349V7.87947C12.6427 8.26227 12.3324 8.57259 11.9496 8.57259H5.85013C5.46733 8.57259 5.15701 8.26227 5.15701 7.87947V3.44349ZM15.4152 15.0879C15.4152 15.4707 15.1049 15.7811 14.7221 15.7811H3.07765C2.69485 15.7811 2.38453 15.4707 2.38453 15.0879V10.0975C2.38453 9.71466 2.69485 9.40434 3.07765 9.40434H14.7221C15.1049 9.40434 15.4152 9.71466 15.4152 10.0975V15.0879Z" fill="white" stroke="white" stroke-width="0.277248"/>
<path d="M6.68164 5.38428H11.1176V5.93877H6.68164V5.38428ZM6.68164 6.49327H11.1176V7.04777H6.68164V6.49327ZM10.5631 12.5927H7.23614V12.0382H6.68164V13.1472H11.1176V12.0382H10.5631V12.5927Z" fill="white"/>
</svg>