<svg width="1120" height="439" viewBox="0 0 1120 439" fill="none" xmlns="http://www.w3.org/2000/svg">
<g filter="url(#filter0_d_626_979)">
<path d="M723.858 11H21.719C15.7991 11 11 15.7991 11 21.719V412.445C11 418.297 15.5262 423.065 21.3776 423.158C257.809 426.923 717.823 431.93 746.301 422.991C782.428 411.652 1167.67 322.313 1101.34 194.489C1048.43 92.5289 829.494 29.9219 725.722 11.1639C725.097 11.0509 724.493 11 723.858 11Z" fill="#EEF5FC"/>
<path d="M723.858 11H21.719C15.7991 11 11 15.7991 11 21.719V412.445C11 418.297 15.5262 423.065 21.3776 423.158C257.809 426.923 717.823 431.93 746.301 422.991C782.428 411.652 1167.67 322.313 1101.34 194.489C1048.43 92.5289 829.494 29.9219 725.722 11.1639C725.097 11.0509 724.493 11 723.858 11Z" stroke="white" stroke-width="13.7049"/>
</g>
<line x1="695" y1="11" x2="695" y2="428" stroke="white" stroke-width="10"/>
<line x1="322" y1="11" x2="322" y2="428" stroke="white" stroke-width="10"/>
<line x1="317" y1="215" x2="700" y2="215" stroke="white" stroke-width="10"/>
<line x1="17" y1="292" x2="327" y2="292" stroke="white" stroke-width="10"/>
<path d="M123.92 156V154.44L130.74 143.7H124V142H133.06V143.56L126.22 154.3H133.12V156H123.92ZM139.995 156.24C139.048 156.24 138.195 156.02 137.435 155.58C136.688 155.14 136.095 154.527 135.655 153.74C135.228 152.94 135.015 152.02 135.015 150.98C135.015 149.913 135.235 148.987 135.675 148.2C136.115 147.4 136.715 146.78 137.475 146.34C138.235 145.9 139.088 145.68 140.035 145.68C140.995 145.68 141.848 145.9 142.595 146.34C143.342 146.78 143.928 147.393 144.355 148.18C144.795 148.967 145.015 149.893 145.015 150.96C145.015 152.027 144.795 152.953 144.355 153.74C143.928 154.527 143.335 155.14 142.575 155.58C141.815 156.02 140.955 156.24 139.995 156.24ZM139.995 154.52C140.542 154.52 141.035 154.387 141.475 154.12C141.928 153.853 142.288 153.46 142.555 152.94C142.835 152.407 142.975 151.747 142.975 150.96C142.975 150.173 142.842 149.52 142.575 149C142.308 148.467 141.948 148.067 141.495 147.8C141.055 147.533 140.568 147.4 140.035 147.4C139.502 147.4 139.008 147.533 138.555 147.8C138.102 148.067 137.735 148.467 137.455 149C137.188 149.52 137.055 150.173 137.055 150.96C137.055 151.747 137.188 152.407 137.455 152.94C137.735 153.46 138.095 153.853 138.535 154.12C138.988 154.387 139.475 154.52 139.995 154.52ZM147.368 156V145.92H149.168L149.288 147.64C149.608 147.04 150.061 146.567 150.648 146.22C151.234 145.86 151.908 145.68 152.668 145.68C153.468 145.68 154.154 145.84 154.728 146.16C155.301 146.48 155.748 146.967 156.068 147.62C156.388 148.26 156.548 149.067 156.548 150.04V156H154.548V150.24C154.548 149.307 154.341 148.6 153.928 148.12C153.514 147.64 152.914 147.4 152.128 147.4C151.608 147.4 151.141 147.527 150.728 147.78C150.314 148.02 149.981 148.38 149.728 148.86C149.488 149.34 149.368 149.927 149.368 150.62V156H147.368ZM163.666 156.24C162.706 156.24 161.853 156.02 161.106 155.58C160.359 155.14 159.773 154.527 159.346 153.74C158.933 152.953 158.726 152.04 158.726 151C158.726 149.933 158.933 149.007 159.346 148.22C159.773 147.42 160.359 146.8 161.106 146.36C161.853 145.907 162.719 145.68 163.706 145.68C164.693 145.68 165.539 145.9 166.246 146.34C166.953 146.78 167.499 147.367 167.886 148.1C168.273 148.82 168.466 149.62 168.466 150.5C168.466 150.633 168.459 150.78 168.446 150.94C168.446 151.087 168.439 151.253 168.426 151.44H160.186V150.02H166.466C166.426 149.18 166.146 148.527 165.626 148.06C165.106 147.58 164.459 147.34 163.686 147.34C163.139 147.34 162.639 147.467 162.186 147.72C161.733 147.96 161.366 148.32 161.086 148.8C160.819 149.267 160.686 149.86 160.686 150.58V151.14C160.686 151.887 160.819 152.52 161.086 153.04C161.366 153.547 161.733 153.933 162.186 154.2C162.639 154.453 163.133 154.58 163.666 154.58C164.306 154.58 164.833 154.44 165.246 154.16C165.659 153.88 165.966 153.5 166.166 153.02H168.166C167.993 153.633 167.699 154.187 167.286 154.68C166.873 155.16 166.359 155.54 165.746 155.82C165.146 156.1 164.453 156.24 163.666 156.24ZM170.808 150.94V149.26H178.888V150.94H170.808ZM188.183 156V153.14H181.163V151.58L187.863 142H190.163V151.4H192.163V153.14H190.163V156H188.183ZM183.343 151.4H188.303V144.2L183.343 151.4Z" fill="black"/>
<path d="M126.92 371V369.44L133.74 358.7H127V357H136.06V358.56L129.22 369.3H136.12V371H126.92ZM142.995 371.24C142.048 371.24 141.195 371.02 140.435 370.58C139.688 370.14 139.095 369.527 138.655 368.74C138.228 367.94 138.015 367.02 138.015 365.98C138.015 364.913 138.235 363.987 138.675 363.2C139.115 362.4 139.715 361.78 140.475 361.34C141.235 360.9 142.088 360.68 143.035 360.68C143.995 360.68 144.848 360.9 145.595 361.34C146.342 361.78 146.928 362.393 147.355 363.18C147.795 363.967 148.015 364.893 148.015 365.96C148.015 367.027 147.795 367.953 147.355 368.74C146.928 369.527 146.335 370.14 145.575 370.58C144.815 371.02 143.955 371.24 142.995 371.24ZM142.995 369.52C143.542 369.52 144.035 369.387 144.475 369.12C144.928 368.853 145.288 368.46 145.555 367.94C145.835 367.407 145.975 366.747 145.975 365.96C145.975 365.173 145.842 364.52 145.575 364C145.308 363.467 144.948 363.067 144.495 362.8C144.055 362.533 143.568 362.4 143.035 362.4C142.502 362.4 142.008 362.533 141.555 362.8C141.102 363.067 140.735 363.467 140.455 364C140.188 364.52 140.055 365.173 140.055 365.96C140.055 366.747 140.188 367.407 140.455 367.94C140.735 368.46 141.095 368.853 141.535 369.12C141.988 369.387 142.475 369.52 142.995 369.52ZM150.368 371V360.92H152.168L152.288 362.64C152.608 362.04 153.061 361.567 153.648 361.22C154.234 360.86 154.908 360.68 155.668 360.68C156.468 360.68 157.154 360.84 157.728 361.16C158.301 361.48 158.748 361.967 159.068 362.62C159.388 363.26 159.548 364.067 159.548 365.04V371H157.548V365.24C157.548 364.307 157.341 363.6 156.928 363.12C156.514 362.64 155.914 362.4 155.128 362.4C154.608 362.4 154.141 362.527 153.728 362.78C153.314 363.02 152.981 363.38 152.728 363.86C152.488 364.34 152.368 364.927 152.368 365.62V371H150.368ZM166.666 371.24C165.706 371.24 164.853 371.02 164.106 370.58C163.359 370.14 162.773 369.527 162.346 368.74C161.933 367.953 161.726 367.04 161.726 366C161.726 364.933 161.933 364.007 162.346 363.22C162.773 362.42 163.359 361.8 164.106 361.36C164.853 360.907 165.719 360.68 166.706 360.68C167.693 360.68 168.539 360.9 169.246 361.34C169.953 361.78 170.499 362.367 170.886 363.1C171.273 363.82 171.466 364.62 171.466 365.5C171.466 365.633 171.459 365.78 171.446 365.94C171.446 366.087 171.439 366.253 171.426 366.44H163.186V365.02H169.466C169.426 364.18 169.146 363.527 168.626 363.06C168.106 362.58 167.459 362.34 166.686 362.34C166.139 362.34 165.639 362.467 165.186 362.72C164.733 362.96 164.366 363.32 164.086 363.8C163.819 364.267 163.686 364.86 163.686 365.58V366.14C163.686 366.887 163.819 367.52 164.086 368.04C164.366 368.547 164.733 368.933 165.186 369.2C165.639 369.453 166.133 369.58 166.666 369.58C167.306 369.58 167.833 369.44 168.246 369.16C168.659 368.88 168.966 368.5 169.166 368.02H171.166C170.993 368.633 170.699 369.187 170.286 369.68C169.873 370.16 169.359 370.54 168.746 370.82C168.146 371.1 167.453 371.24 166.666 371.24ZM173.808 365.94V364.26H181.888V365.94H173.808ZM189.643 371.24C188.657 371.24 187.81 371.067 187.103 370.72C186.397 370.36 185.837 369.88 185.423 369.28C185.01 368.667 184.757 367.98 184.663 367.22H186.623C186.757 367.9 187.09 368.46 187.623 368.9C188.157 369.327 188.83 369.54 189.643 369.54C190.257 369.54 190.783 369.393 191.223 369.1C191.663 368.807 192.003 368.413 192.243 367.92C192.483 367.427 192.603 366.88 192.603 366.28C192.603 365.64 192.477 365.087 192.223 364.62C191.983 364.14 191.643 363.767 191.203 363.5C190.777 363.233 190.277 363.1 189.703 363.1C189.01 363.1 188.41 363.26 187.903 363.58C187.41 363.887 187.05 364.28 186.823 364.76H184.883L186.043 357H193.583V358.74H187.583L186.843 362.66C187.163 362.3 187.59 362.007 188.123 361.78C188.67 361.54 189.29 361.42 189.983 361.42C190.69 361.42 191.323 361.547 191.883 361.8C192.443 362.053 192.917 362.4 193.303 362.84C193.703 363.28 194.003 363.793 194.203 364.38C194.417 364.967 194.523 365.587 194.523 366.24C194.523 366.947 194.41 367.6 194.183 368.2C193.957 368.8 193.63 369.333 193.203 369.8C192.79 370.253 192.277 370.607 191.663 370.86C191.063 371.113 190.39 371.24 189.643 371.24Z" fill="black"/>
<path d="M457.92 328V326.44L464.74 315.7H458V314H467.06V315.56L460.22 326.3H467.12V328H457.92ZM473.995 328.24C473.048 328.24 472.195 328.02 471.435 327.58C470.688 327.14 470.095 326.527 469.655 325.74C469.228 324.94 469.015 324.02 469.015 322.98C469.015 321.913 469.235 320.987 469.675 320.2C470.115 319.4 470.715 318.78 471.475 318.34C472.235 317.9 473.088 317.68 474.035 317.68C474.995 317.68 475.848 317.9 476.595 318.34C477.342 318.78 477.928 319.393 478.355 320.18C478.795 320.967 479.015 321.893 479.015 322.96C479.015 324.027 478.795 324.953 478.355 325.74C477.928 326.527 477.335 327.14 476.575 327.58C475.815 328.02 474.955 328.24 473.995 328.24ZM473.995 326.52C474.542 326.52 475.035 326.387 475.475 326.12C475.928 325.853 476.288 325.46 476.555 324.94C476.835 324.407 476.975 323.747 476.975 322.96C476.975 322.173 476.842 321.52 476.575 321C476.308 320.467 475.948 320.067 475.495 319.8C475.055 319.533 474.568 319.4 474.035 319.4C473.502 319.4 473.008 319.533 472.555 319.8C472.102 320.067 471.735 320.467 471.455 321C471.188 321.52 471.055 322.173 471.055 322.96C471.055 323.747 471.188 324.407 471.455 324.94C471.735 325.46 472.095 325.853 472.535 326.12C472.988 326.387 473.475 326.52 473.995 326.52ZM481.368 328V317.92H483.168L483.288 319.64C483.608 319.04 484.061 318.567 484.648 318.22C485.234 317.86 485.908 317.68 486.668 317.68C487.468 317.68 488.154 317.84 488.728 318.16C489.301 318.48 489.748 318.967 490.068 319.62C490.388 320.26 490.548 321.067 490.548 322.04V328H488.548V322.24C488.548 321.307 488.341 320.6 487.928 320.12C487.514 319.64 486.914 319.4 486.128 319.4C485.608 319.4 485.141 319.527 484.728 319.78C484.314 320.02 483.981 320.38 483.728 320.86C483.488 321.34 483.368 321.927 483.368 322.62V328H481.368ZM497.666 328.24C496.706 328.24 495.853 328.02 495.106 327.58C494.359 327.14 493.773 326.527 493.346 325.74C492.933 324.953 492.726 324.04 492.726 323C492.726 321.933 492.933 321.007 493.346 320.22C493.773 319.42 494.359 318.8 495.106 318.36C495.853 317.907 496.719 317.68 497.706 317.68C498.693 317.68 499.539 317.9 500.246 318.34C500.953 318.78 501.499 319.367 501.886 320.1C502.273 320.82 502.466 321.62 502.466 322.5C502.466 322.633 502.459 322.78 502.446 322.94C502.446 323.087 502.439 323.253 502.426 323.44H494.186V322.02H500.466C500.426 321.18 500.146 320.527 499.626 320.06C499.106 319.58 498.459 319.34 497.686 319.34C497.139 319.34 496.639 319.467 496.186 319.72C495.733 319.96 495.366 320.32 495.086 320.8C494.819 321.267 494.686 321.86 494.686 322.58V323.14C494.686 323.887 494.819 324.52 495.086 325.04C495.366 325.547 495.733 325.933 496.186 326.2C496.639 326.453 497.133 326.58 497.666 326.58C498.306 326.58 498.833 326.44 499.246 326.16C499.659 325.88 499.966 325.5 500.166 325.02H502.166C501.993 325.633 501.699 326.187 501.286 326.68C500.873 327.16 500.359 327.54 499.746 327.82C499.146 328.1 498.453 328.24 497.666 328.24ZM504.808 322.94V321.26H512.888V322.94H504.808ZM515.543 328V326.56C516.477 325.84 517.363 325.113 518.203 324.38C519.043 323.647 519.79 322.92 520.443 322.2C521.11 321.467 521.63 320.753 522.003 320.06C522.377 319.353 522.563 318.68 522.563 318.04C522.563 317.587 522.483 317.167 522.323 316.78C522.163 316.393 521.91 316.08 521.563 315.84C521.217 315.587 520.743 315.46 520.143 315.46C519.57 315.46 519.09 315.587 518.703 315.84C518.33 316.093 518.043 316.433 517.843 316.86C517.657 317.273 517.563 317.733 517.563 318.24H515.623C515.637 317.28 515.843 316.467 516.243 315.8C516.643 315.133 517.183 314.627 517.863 314.28C518.557 313.933 519.33 313.76 520.183 313.76C521.077 313.76 521.85 313.927 522.503 314.26C523.157 314.58 523.663 315.053 524.023 315.68C524.383 316.293 524.563 317.047 524.563 317.94C524.563 318.58 524.437 319.22 524.183 319.86C523.93 320.487 523.583 321.1 523.143 321.7C522.717 322.3 522.237 322.88 521.703 323.44C521.17 323.987 520.617 324.507 520.043 325C519.483 325.493 518.943 325.94 518.423 326.34H525.003V328H515.543Z" fill="black"/>
<rect x="329" y="20" width="359" height="187" rx="2" fill="#D0E8FF" stroke="#ADDBFF" stroke-width="4"/>
<path d="M469.92 126V124.44L476.74 113.7H470V112H479.06V113.56L472.22 124.3H479.12V126H469.92ZM485.995 126.24C485.048 126.24 484.195 126.02 483.435 125.58C482.688 125.14 482.095 124.527 481.655 123.74C481.228 122.94 481.015 122.02 481.015 120.98C481.015 119.913 481.235 118.987 481.675 118.2C482.115 117.4 482.715 116.78 483.475 116.34C484.235 115.9 485.088 115.68 486.035 115.68C486.995 115.68 487.848 115.9 488.595 116.34C489.342 116.78 489.928 117.393 490.355 118.18C490.795 118.967 491.015 119.893 491.015 120.96C491.015 122.027 490.795 122.953 490.355 123.74C489.928 124.527 489.335 125.14 488.575 125.58C487.815 126.02 486.955 126.24 485.995 126.24ZM485.995 124.52C486.542 124.52 487.035 124.387 487.475 124.12C487.928 123.853 488.288 123.46 488.555 122.94C488.835 122.407 488.975 121.747 488.975 120.96C488.975 120.173 488.842 119.52 488.575 119C488.308 118.467 487.948 118.067 487.495 117.8C487.055 117.533 486.568 117.4 486.035 117.4C485.502 117.4 485.008 117.533 484.555 117.8C484.102 118.067 483.735 118.467 483.455 119C483.188 119.52 483.055 120.173 483.055 120.96C483.055 121.747 483.188 122.407 483.455 122.94C483.735 123.46 484.095 123.853 484.535 124.12C484.988 124.387 485.475 124.52 485.995 124.52ZM493.368 126V115.92H495.168L495.288 117.64C495.608 117.04 496.061 116.567 496.648 116.22C497.234 115.86 497.908 115.68 498.668 115.68C499.468 115.68 500.154 115.84 500.728 116.16C501.301 116.48 501.748 116.967 502.068 117.62C502.388 118.26 502.548 119.067 502.548 120.04V126H500.548V120.24C500.548 119.307 500.341 118.6 499.928 118.12C499.514 117.64 498.914 117.4 498.128 117.4C497.608 117.4 497.141 117.527 496.728 117.78C496.314 118.02 495.981 118.38 495.728 118.86C495.488 119.34 495.368 119.927 495.368 120.62V126H493.368ZM509.666 126.24C508.706 126.24 507.853 126.02 507.106 125.58C506.359 125.14 505.773 124.527 505.346 123.74C504.933 122.953 504.726 122.04 504.726 121C504.726 119.933 504.933 119.007 505.346 118.22C505.773 117.42 506.359 116.8 507.106 116.36C507.853 115.907 508.719 115.68 509.706 115.68C510.693 115.68 511.539 115.9 512.246 116.34C512.953 116.78 513.499 117.367 513.886 118.1C514.273 118.82 514.466 119.62 514.466 120.5C514.466 120.633 514.459 120.78 514.446 120.94C514.446 121.087 514.439 121.253 514.426 121.44H506.186V120.02H512.466C512.426 119.18 512.146 118.527 511.626 118.06C511.106 117.58 510.459 117.34 509.686 117.34C509.139 117.34 508.639 117.467 508.186 117.72C507.733 117.96 507.366 118.32 507.086 118.8C506.819 119.267 506.686 119.86 506.686 120.58V121.14C506.686 121.887 506.819 122.52 507.086 123.04C507.366 123.547 507.733 123.933 508.186 124.2C508.639 124.453 509.133 124.58 509.666 124.58C510.306 124.58 510.833 124.44 511.246 124.16C511.659 123.88 511.966 123.5 512.166 123.02H514.166C513.993 123.633 513.699 124.187 513.286 124.68C512.873 125.16 512.359 125.54 511.746 125.82C511.146 126.1 510.453 126.24 509.666 126.24ZM516.808 120.94V119.26H524.888V120.94H516.808ZM532.263 126.24C531.37 126.24 530.55 126.08 529.803 125.76C529.07 125.427 528.483 124.933 528.043 124.28C527.617 123.613 527.39 122.78 527.363 121.78H529.363C529.377 122.287 529.497 122.747 529.723 123.16C529.95 123.573 530.277 123.907 530.703 124.16C531.143 124.4 531.663 124.52 532.263 124.52C532.863 124.52 533.363 124.407 533.763 124.18C534.177 123.953 534.483 123.647 534.683 123.26C534.897 122.873 535.003 122.44 535.003 121.96C535.003 121.36 534.857 120.873 534.563 120.5C534.283 120.127 533.897 119.847 533.403 119.66C532.923 119.473 532.383 119.38 531.783 119.38H530.743V117.7H531.783C532.623 117.7 533.29 117.507 533.783 117.12C534.29 116.733 534.543 116.187 534.543 115.48C534.543 114.893 534.35 114.413 533.963 114.04C533.577 113.667 533.01 113.48 532.263 113.48C531.517 113.48 530.923 113.693 530.483 114.12C530.057 114.547 529.817 115.087 529.763 115.74H527.783C527.823 114.953 528.03 114.26 528.403 113.66C528.79 113.047 529.31 112.58 529.963 112.26C530.63 111.927 531.397 111.76 532.263 111.76C533.197 111.76 533.977 111.927 534.603 112.26C535.243 112.58 535.723 113.013 536.043 113.56C536.377 114.107 536.543 114.707 536.543 115.36C536.543 115.853 536.45 116.313 536.263 116.74C536.077 117.153 535.81 117.513 535.463 117.82C535.117 118.127 534.697 118.347 534.203 118.48C534.737 118.587 535.217 118.793 535.643 119.1C536.07 119.407 536.403 119.807 536.643 120.3C536.883 120.78 537.003 121.34 537.003 121.98C537.003 122.74 536.823 123.447 536.463 124.1C536.103 124.74 535.57 125.26 534.863 125.66C534.17 126.047 533.303 126.24 532.263 126.24Z" fill="black"/>
<path d="M855.92 220V218.44L862.74 207.7H856V206H865.06V207.56L858.22 218.3H865.12V220H855.92ZM871.995 220.24C871.048 220.24 870.195 220.02 869.435 219.58C868.688 219.14 868.095 218.527 867.655 217.74C867.228 216.94 867.015 216.02 867.015 214.98C867.015 213.913 867.235 212.987 867.675 212.2C868.115 211.4 868.715 210.78 869.475 210.34C870.235 209.9 871.088 209.68 872.035 209.68C872.995 209.68 873.848 209.9 874.595 210.34C875.342 210.78 875.928 211.393 876.355 212.18C876.795 212.967 877.015 213.893 877.015 214.96C877.015 216.027 876.795 216.953 876.355 217.74C875.928 218.527 875.335 219.14 874.575 219.58C873.815 220.02 872.955 220.24 871.995 220.24ZM871.995 218.52C872.542 218.52 873.035 218.387 873.475 218.12C873.928 217.853 874.288 217.46 874.555 216.94C874.835 216.407 874.975 215.747 874.975 214.96C874.975 214.173 874.842 213.52 874.575 213C874.308 212.467 873.948 212.067 873.495 211.8C873.055 211.533 872.568 211.4 872.035 211.4C871.502 211.4 871.008 211.533 870.555 211.8C870.102 212.067 869.735 212.467 869.455 213C869.188 213.52 869.055 214.173 869.055 214.96C869.055 215.747 869.188 216.407 869.455 216.94C869.735 217.46 870.095 217.853 870.535 218.12C870.988 218.387 871.475 218.52 871.995 218.52ZM879.368 220V209.92H881.168L881.288 211.64C881.608 211.04 882.061 210.567 882.648 210.22C883.234 209.86 883.908 209.68 884.668 209.68C885.468 209.68 886.154 209.84 886.728 210.16C887.301 210.48 887.748 210.967 888.068 211.62C888.388 212.26 888.548 213.067 888.548 214.04V220H886.548V214.24C886.548 213.307 886.341 212.6 885.928 212.12C885.514 211.64 884.914 211.4 884.128 211.4C883.608 211.4 883.141 211.527 882.728 211.78C882.314 212.02 881.981 212.38 881.728 212.86C881.488 213.34 881.368 213.927 881.368 214.62V220H879.368ZM895.666 220.24C894.706 220.24 893.853 220.02 893.106 219.58C892.359 219.14 891.773 218.527 891.346 217.74C890.933 216.953 890.726 216.04 890.726 215C890.726 213.933 890.933 213.007 891.346 212.22C891.773 211.42 892.359 210.8 893.106 210.36C893.853 209.907 894.719 209.68 895.706 209.68C896.693 209.68 897.539 209.9 898.246 210.34C898.953 210.78 899.499 211.367 899.886 212.1C900.273 212.82 900.466 213.62 900.466 214.5C900.466 214.633 900.459 214.78 900.446 214.94C900.446 215.087 900.439 215.253 900.426 215.44H892.186V214.02H898.466C898.426 213.18 898.146 212.527 897.626 212.06C897.106 211.58 896.459 211.34 895.686 211.34C895.139 211.34 894.639 211.467 894.186 211.72C893.733 211.96 893.366 212.32 893.086 212.8C892.819 213.267 892.686 213.86 892.686 214.58V215.14C892.686 215.887 892.819 216.52 893.086 217.04C893.366 217.547 893.733 217.933 894.186 218.2C894.639 218.453 895.133 218.58 895.666 218.58C896.306 218.58 896.833 218.44 897.246 218.16C897.659 217.88 897.966 217.5 898.166 217.02H900.166C899.993 217.633 899.699 218.187 899.286 218.68C898.873 219.16 898.359 219.54 897.746 219.82C897.146 220.1 896.453 220.24 895.666 220.24ZM902.808 214.94V213.26H910.888V214.94H902.808ZM915.423 220V208.26L912.983 208.88V207.38L916.163 206H917.463V220H915.423Z" fill="black"/>
<defs>
<filter id="filter0_d_626_979" x="0.148438" y="0.147461" width="1119.71" height="438.705" filterUnits="userSpaceOnUse" color-interpolation-filters="sRGB">
<feFlood flood-opacity="0" result="BackgroundImageFix"/>
<feColorMatrix in="SourceAlpha" type="matrix" values="0 0 0 0 0 0 0 0 0 0 0 0 0 0 0 0 0 0 127 0" result="hardAlpha"/>
<feOffset/>
<feGaussianBlur stdDeviation="2"/>
<feComposite in2="hardAlpha" operator="out"/>
<feColorMatrix type="matrix" values="0 0 0 0 0 0 0 0 0 0 0 0 0 0 0 0 0 0 0.25 0"/>
<feBlend mode="normal" in2="BackgroundImageFix" result="effect1_dropShadow_626_979"/>
<feBlend mode="normal" in="SourceGraphic" in2="effect1_dropShadow_626_979" result="shape"/>
</filter>
</defs>
</svg>
