<svg width="636" height="304" viewBox="0 0 636 304" fill="none" xmlns="http://www.w3.org/2000/svg">
<g clip-path="url(#clip0_660_1158)">
<path d="M496.56 45.6728H340.683V42.4603H270.002V45.6728H113.482C110.686 45.6728 108.004 46.7838 106.026 48.7613C104.048 50.7389 102.938 53.421 102.938 56.2176V269.66C102.938 272.457 104.048 275.139 106.026 277.116C108.004 279.094 110.686 280.205 113.482 280.205H496.56C499.356 280.205 502.039 279.094 504.016 277.116C505.994 275.139 507.105 272.457 507.105 269.66V56.2164C507.104 53.42 505.993 50.7382 504.016 48.7609C502.038 46.7836 499.356 45.6728 496.56 45.6728Z" fill="#3F3D56"/>
<path d="M492.967 64.3065H117.074V276.349H492.967V64.3065Z" fill="#E6E6E6"/>
<path d="M477.154 75.5204H133.016V258.804H477.154V75.5204Z" fill="white"/>
<path d="M304.699 58.5239C306.828 58.5239 308.555 56.7978 308.555 54.6685C308.555 52.5392 306.828 50.8131 304.699 50.8131C302.57 50.8131 300.844 52.5392 300.844 54.6685C300.844 56.7978 302.57 58.5239 304.699 58.5239Z" fill="#47AFFF"/>
<path d="M517.658 272.493H480.974V269.85C480.974 269.711 480.918 269.578 480.82 269.479C480.722 269.381 480.588 269.326 480.449 269.326H467.872C467.733 269.326 467.599 269.381 467.501 269.479C467.403 269.578 467.347 269.711 467.347 269.85V272.493H459.487V269.85C459.487 269.711 459.432 269.578 459.333 269.479C459.235 269.381 459.102 269.326 458.963 269.326H446.385C446.246 269.326 446.112 269.381 446.014 269.479C445.916 269.578 445.861 269.711 445.861 269.85V272.493H438V269.85C438 269.711 437.945 269.578 437.846 269.479C437.748 269.381 437.615 269.326 437.476 269.326H424.898C424.759 269.326 424.626 269.381 424.527 269.479C424.429 269.578 424.374 269.711 424.374 269.85V272.493H416.513V269.85C416.513 269.711 416.458 269.578 416.36 269.479C416.261 269.381 416.128 269.326 415.989 269.326H403.412C403.273 269.326 403.139 269.381 403.041 269.479C402.943 269.578 402.888 269.711 402.888 269.85V272.493H395.026V269.85C395.026 269.711 394.971 269.578 394.873 269.479C394.774 269.381 394.641 269.326 394.502 269.326H381.925C381.786 269.326 381.653 269.381 381.554 269.479C381.456 269.578 381.401 269.711 381.401 269.85V272.493H373.539V269.85C373.539 269.711 373.484 269.578 373.386 269.479C373.288 269.381 373.154 269.326 373.015 269.326H360.441C360.302 269.326 360.168 269.381 360.07 269.479C359.972 269.578 359.916 269.711 359.916 269.85V272.493H352.053V269.85C352.053 269.711 351.997 269.578 351.899 269.479C351.801 269.381 351.667 269.326 351.528 269.326H253.004C252.865 269.326 252.732 269.381 252.633 269.479C252.535 269.578 252.48 269.711 252.48 269.85V272.493H244.619V269.85C244.619 269.711 244.564 269.578 244.466 269.479C244.367 269.381 244.234 269.326 244.095 269.326H231.517C231.378 269.326 231.245 269.381 231.147 269.479C231.048 269.578 230.993 269.711 230.993 269.85V272.493H223.132V269.85C223.132 269.711 223.077 269.578 222.979 269.479C222.88 269.381 222.747 269.326 222.608 269.326H210.031C209.892 269.326 209.759 269.381 209.66 269.479C209.562 269.578 209.507 269.711 209.507 269.85V272.493H201.646V269.85C201.646 269.711 201.59 269.578 201.492 269.479C201.394 269.381 201.26 269.326 201.121 269.326H188.544C188.405 269.326 188.272 269.381 188.174 269.479C188.075 269.578 188.02 269.711 188.02 269.85V272.493H180.161V269.85C180.161 269.711 180.105 269.578 180.007 269.479C179.909 269.381 179.775 269.326 179.636 269.326H167.057C166.918 269.326 166.785 269.381 166.687 269.479C166.588 269.578 166.533 269.711 166.533 269.85V272.493H158.672V269.85C158.672 269.711 158.617 269.578 158.519 269.479C158.421 269.381 158.287 269.326 158.148 269.326H145.571C145.432 269.326 145.298 269.381 145.2 269.479C145.102 269.578 145.046 269.711 145.046 269.85V272.493H137.186V269.85C137.186 269.711 137.13 269.578 137.032 269.479C136.934 269.381 136.8 269.326 136.661 269.326H124.081C123.942 269.326 123.809 269.381 123.711 269.479C123.612 269.578 123.557 269.711 123.557 269.85V272.493H99.4527C96.1169 272.493 92.9177 273.819 90.5589 276.177C88.2001 278.536 86.875 281.735 86.875 285.071V290.758C86.875 294.094 88.2001 297.293 90.5589 299.652C92.9177 302.011 96.1169 303.336 99.4527 303.336H517.658C520.994 303.336 524.193 302.011 526.552 299.652C528.91 297.293 530.236 294.094 530.236 290.759V285.072C530.236 281.736 528.911 278.537 526.552 276.178C524.193 273.819 520.994 272.494 517.658 272.494V272.493Z" fill="#3F3D56"/>
<path d="M381.177 88.3749H228.996V248.344H381.177V88.3749Z" fill="#E6E6E6"/>
<path d="M635.683 302.801H0V304H635.683V302.801Z" fill="#E6E6E6"/>
<path d="M573.947 260.943C582.56 270.185 583.006 283.77 583.006 283.77C583.006 283.77 569.486 282.369 560.873 273.127C552.26 263.884 551.814 250.3 551.814 250.3C551.814 250.3 565.334 251.7 573.947 260.943Z" fill="#47AFFF"/>
<path d="M601.061 275.37C591.819 283.983 578.234 284.428 578.234 284.428C578.234 284.428 579.635 270.908 588.877 262.295C598.12 253.682 611.705 253.237 611.705 253.237C611.705 253.237 610.304 266.756 601.061 275.37Z" fill="#47AFFF"/>
<path d="M598.765 302.801H564.77C564.118 302.802 563.479 302.618 562.926 302.272C562.373 301.926 561.928 301.432 561.643 300.845L554.242 285.631C553.984 285.101 553.864 284.514 553.895 283.925C553.927 283.336 554.107 282.765 554.42 282.265C554.732 281.765 555.167 281.353 555.683 281.068C556.199 280.782 556.779 280.633 557.369 280.633H606.166C606.756 280.633 607.336 280.782 607.852 281.068C608.368 281.353 608.803 281.765 609.116 282.265C609.428 282.765 609.609 283.336 609.64 283.925C609.671 284.514 609.552 285.101 609.293 285.631L601.892 300.846C601.607 301.432 601.163 301.927 600.61 302.273C600.057 302.619 599.417 302.802 598.765 302.802L598.765 302.801Z" fill="#E5E5E5"/>
<path d="M36.5214 260.943C45.1345 270.185 45.5797 283.77 45.5797 283.77C45.5797 283.77 32.0602 282.369 23.447 273.127C14.8338 263.884 14.3887 250.3 14.3887 250.3C14.3887 250.3 27.9082 251.7 36.5214 260.943Z" fill="#47AFFF"/>
<path d="M55.9482 302.801H21.9538C21.3015 302.802 20.6623 302.618 20.1094 302.272C19.5564 301.926 19.112 301.432 18.8269 300.845L11.4258 285.631C11.1673 285.101 11.048 284.514 11.079 283.925C11.1101 283.336 11.2905 282.765 11.6033 282.265C11.916 281.765 12.3509 281.353 12.8668 281.068C13.3828 280.782 13.963 280.633 14.5526 280.633H63.3499C63.9396 280.633 64.5197 280.782 65.0357 281.068C65.5517 281.353 65.9865 281.765 66.2993 282.265C66.612 282.765 66.7924 283.336 66.8235 283.925C66.8545 284.514 66.7352 285.101 66.4768 285.631L59.0756 300.846C58.7906 301.432 58.3461 301.927 57.7931 302.273C57.2402 302.619 56.601 302.802 55.9487 302.802L55.9482 302.801Z" fill="#E5E5E5"/>
<path d="M323.448 133.659C334.618 133.659 343.673 124.604 343.673 113.434C343.673 102.264 334.618 93.209 323.448 93.209C312.278 93.209 303.223 102.264 303.223 113.434C303.223 124.604 312.278 133.659 323.448 133.659Z" fill="#A0616A"/>
<path d="M276.912 248.674L289.973 166.451C290.668 162.079 292.285 157.906 294.718 154.208C297.151 150.51 300.344 147.372 304.083 145.004C307.823 142.636 312.024 141.091 316.407 140.473C320.79 139.855 325.255 140.177 329.504 141.418C336.932 143.567 343.293 148.408 347.344 154.995C351.395 161.583 352.844 169.444 351.409 177.043L337.748 250.472L276.912 248.674Z" fill="#47AFFF"/>
<path d="M329.031 263.386C330.041 262.719 330.892 261.838 331.525 260.806C332.159 259.774 332.558 258.616 332.695 257.414C332.832 256.211 332.704 254.993 332.319 253.845C331.934 252.697 331.303 251.648 330.469 250.77L343.97 224.625L328.765 226.247L318.275 250.827C316.9 252.327 316.122 254.279 316.087 256.314C316.053 258.349 316.765 260.326 318.088 261.872C319.412 263.417 321.256 264.425 323.272 264.704C325.288 264.983 327.336 264.514 329.03 263.386L329.031 263.386Z" fill="#A0616A"/>
<path d="M331.922 246.159C331.175 246.053 330.478 245.723 329.924 245.211L324.758 240.438C324.2 239.92 323.815 239.243 323.654 238.498C323.493 237.754 323.565 236.978 323.859 236.276L334.184 211.805L332.719 163.451C333.147 160.314 334.803 157.476 337.324 155.56C339.845 153.645 343.023 152.809 346.16 153.237C349.297 153.665 352.136 155.321 354.051 157.842C355.967 160.363 356.803 163.541 356.375 166.678L358.879 197.074C359.64 206.299 357.025 215.487 351.519 222.928L335.419 244.694C335.109 245.112 334.715 245.461 334.261 245.717C333.808 245.973 333.306 246.13 332.788 246.179C332.499 246.207 332.209 246.2 331.922 246.159Z" fill="#47AFFF"/>
<path d="M206.978 102.415C207.198 103.606 207.677 104.733 208.38 105.719C209.083 106.704 209.994 107.523 211.048 108.118C212.102 108.713 213.274 109.07 214.481 109.164C215.688 109.257 216.901 109.085 218.034 108.659L236.847 131.286L241.28 116.652L222.736 97.4079C221.89 95.5577 220.396 94.0813 218.536 93.2571C216.676 92.433 214.579 92.3181 212.64 92.9343C210.701 93.5504 209.055 94.8549 208.012 96.6016C206.969 98.3483 206.601 100.416 206.978 102.415Z" fill="#A0616A"/>
<path d="M221.714 111.795C222.102 111.148 222.678 110.635 223.366 110.324L229.776 107.429C230.471 107.117 231.245 107.026 231.993 107.168C232.741 107.31 233.428 107.679 233.96 108.224L252.469 127.272L297.567 144.776C298.916 145.576 300.094 146.634 301.034 147.89C301.974 149.145 302.657 150.574 303.044 152.093C303.432 153.613 303.516 155.194 303.292 156.746C303.068 158.299 302.54 159.792 301.739 161.14C300.938 162.488 299.879 163.665 298.623 164.604C297.367 165.543 295.938 166.225 294.418 166.612C292.898 166.998 291.317 167.081 289.765 166.856C288.213 166.632 286.72 166.103 285.373 165.301L256.406 155.756C247.614 152.86 240.173 146.869 235.468 138.898L221.702 115.585C221.437 115.137 221.27 114.638 221.211 114.121C221.152 113.604 221.203 113.08 221.36 112.584C221.447 112.308 221.566 112.043 221.716 111.795L221.714 111.795Z" fill="#47AFFF"/>
<path opacity="0.1" d="M339.852 183.565L339.029 209.916L323.859 236.278L336.526 206.902L339.852 183.565Z" fill="black"/>
<path d="M309.751 103.297C311.837 105.766 315.368 106.462 318.624 106.748C325.238 107.328 334.856 106.389 341.319 104.895C341.78 109.366 340.523 114.187 343.156 117.865C344.391 113.412 345.109 108.832 345.296 104.215C345.375 102.238 345.344 100.186 344.539 98.3687C343.735 96.5509 341.98 95.0081 339.959 94.992C341.46 93.853 343.219 93.1011 345.08 92.8027L338.681 89.5872L340.325 87.9L328.74 87.1912L332.095 85.0595C327.045 84.3662 321.936 84.2055 316.852 84.5802C314.492 84.7539 312.023 85.0864 310.111 86.4543C308.198 87.8221 307.093 90.5404 308.28 92.5487C306.794 92.7928 305.394 93.4124 304.214 94.3488C303.034 95.2852 302.112 96.5074 301.536 97.8996C300.684 100.061 300.762 102.463 301.025 104.766C301.461 108.451 302.318 112.073 303.577 115.563" fill="#2F2E41"/>
<path d="M396.211 52.6309L211.918 95.1783C211.013 95.3861 210.062 95.2265 209.275 94.7344C208.488 94.2423 207.927 93.458 207.717 92.5535L197.163 46.8382C196.955 45.9332 197.115 44.9827 197.607 44.1952C198.099 43.4077 198.884 42.8475 199.788 42.6375L384.081 0.0901245C384.986 -0.117683 385.937 0.0419655 386.724 0.534046C387.512 1.02613 388.072 1.81046 388.282 2.715L398.836 48.4303C399.044 49.3353 398.884 50.2858 398.392 51.0733C397.9 51.8608 397.116 52.4209 396.211 52.6309Z" fill="white"/>
<path d="M396.211 52.6309L211.918 95.1783C211.013 95.3861 210.062 95.2265 209.275 94.7344C208.488 94.2423 207.927 93.458 207.717 92.5535L197.163 46.8382C196.955 45.9332 197.115 44.9827 197.607 44.1952C198.099 43.4077 198.884 42.8475 199.788 42.6375L384.081 0.0901245C384.986 -0.117683 385.937 0.0419655 386.724 0.534046C387.512 1.02613 388.072 1.81046 388.282 2.715L398.836 48.4303C399.044 49.3353 398.884 50.2858 398.392 51.0733C397.9 51.8608 397.116 52.4209 396.211 52.6309ZM200.103 44.003C199.56 44.1289 199.09 44.465 198.795 44.9376C198.499 45.4102 198.403 45.9806 198.528 46.5237L209.082 92.2389C209.208 92.7818 209.544 93.2526 210.017 93.5479C210.489 93.8432 211.06 93.9389 211.603 93.814L395.896 51.2666C396.439 51.1408 396.91 50.8047 397.205 50.3321C397.5 49.8595 397.596 49.289 397.471 48.7459L386.917 3.03008C386.791 2.48719 386.455 2.01641 385.982 1.72109C385.51 1.42577 384.939 1.33006 384.396 1.45496L200.103 44.003Z" fill="#E6E6E6"/>
<path d="M268.193 58.616L263.331 49.693L264.557 49.4042L268.54 57.096L268.945 48.3709L270.226 48.0693L274.434 55.737L274.587 47.0424L275.813 46.7536L275.388 56.9217L274.08 57.2297L269.947 49.8754L269.474 58.3143L268.193 58.616ZM281.709 55.6059C281.073 55.7557 280.47 55.7395 279.9 55.5573C279.329 55.3752 278.84 55.0493 278.433 54.5796C278.023 54.1008 277.733 53.5026 277.564 52.7849C277.393 52.0581 277.381 51.3946 277.527 50.7944C277.682 50.1921 277.975 49.6822 278.404 49.2647C278.842 48.8451 279.388 48.5583 280.042 48.4043C280.714 48.246 281.322 48.2611 281.865 48.4497C282.408 48.6382 282.86 48.9489 283.221 49.3818C283.588 49.8034 283.841 50.3049 283.978 50.8863C283.999 50.9771 284.022 51.0725 284.045 51.1725C284.069 51.2724 284.091 51.387 284.112 51.5164L278.484 52.8416L278.275 51.9559L282.786 50.8937C282.611 50.2733 282.286 49.8319 281.812 49.5696C281.347 49.3051 280.824 49.2413 280.243 49.3783C279.861 49.4681 279.524 49.6435 279.23 49.9043C278.935 50.1561 278.728 50.4781 278.609 50.8704C278.488 51.2536 278.488 51.6996 278.608 52.2083L278.698 52.5899C278.83 53.1531 279.041 53.602 279.331 53.9365C279.63 54.2689 279.965 54.4919 280.337 54.6057C280.718 54.7173 281.1 54.7282 281.481 54.6384C281.963 54.525 282.333 54.3275 282.593 54.0458C282.86 53.7529 283.022 53.4031 283.079 52.9964L284.21 52.73C284.191 53.1757 284.083 53.5942 283.888 53.9854C283.69 54.3676 283.409 54.7022 283.045 54.9892C282.69 55.2741 282.245 55.4797 281.709 55.6059ZM286.404 54.3278L284.094 44.5161L285.238 44.2466L287.549 54.0582L286.404 54.3278ZM292.57 53.0484C291.925 53.2003 291.308 53.1873 290.72 53.0094C290.141 52.8294 289.643 52.5057 289.226 52.0381C288.807 51.5615 288.514 50.9688 288.347 50.2602C288.176 49.5334 288.172 48.8678 288.337 48.2633C288.501 47.6589 288.803 47.1469 289.241 46.7273C289.686 46.2964 290.231 46.0051 290.876 45.8532C291.694 45.6607 292.425 45.7137 293.071 46.0123C293.714 46.3019 294.192 46.7839 294.504 47.4582L293.332 47.7342C293.141 47.3286 292.84 47.0494 292.43 46.8967C292.021 46.7439 291.575 46.7242 291.093 46.8376C290.703 46.9296 290.363 47.1151 290.074 47.3941C289.792 47.6619 289.592 48.0157 289.475 48.4555C289.367 48.8933 289.381 49.3983 289.515 49.9706C289.616 50.3976 289.765 50.7653 289.962 51.0736C290.157 51.3729 290.38 51.608 290.632 51.7789C290.883 51.9499 291.154 52.0634 291.445 52.1195C291.744 52.1643 292.038 52.1525 292.329 52.0841C292.656 52.0071 292.939 51.8876 293.179 51.7256C293.417 51.5545 293.602 51.3431 293.735 51.0914C293.867 50.8397 293.932 50.5655 293.929 50.2689L295.101 49.9929C295.118 50.7176 294.901 51.3632 294.45 51.9298C294.005 52.4851 293.379 52.858 292.57 53.0484ZM300.341 51.2185C299.705 51.3682 299.099 51.3576 298.522 51.1867C297.942 51.0067 297.444 50.683 297.027 50.2154C296.608 49.7388 296.314 49.1416 296.145 48.4239C295.972 47.688 295.967 47.0179 296.132 46.4134C296.303 45.7977 296.609 45.2846 297.05 44.8741C297.497 44.4523 298.038 44.1666 298.674 44.0169C299.328 43.8628 299.941 43.8769 300.511 44.059C301.088 44.2299 301.586 44.5537 302.005 45.0304C302.431 45.4958 302.73 46.0919 302.901 46.8187C303.072 47.5455 303.072 48.2167 302.901 48.8324C302.727 49.439 302.421 49.9521 301.983 50.3717C301.543 50.7822 300.995 51.0645 300.341 51.2185ZM300.124 50.2341C300.515 50.1421 300.856 49.9612 301.147 49.6912C301.436 49.4122 301.639 49.0528 301.756 48.6129C301.873 48.1731 301.864 47.667 301.729 47.0946C301.592 46.5132 301.374 46.0563 301.076 45.7239C300.784 45.3804 300.447 45.1527 300.066 45.0411C299.692 44.9183 299.305 44.9039 298.905 44.998C298.524 45.0879 298.184 45.2734 297.886 45.5545C297.595 45.8245 297.391 46.1794 297.274 46.6192C297.164 47.0478 297.177 47.5529 297.314 48.1343C297.449 48.7066 297.662 49.1646 297.954 49.5082C298.255 49.8496 298.592 50.0818 298.966 50.2046C299.347 50.3163 299.733 50.3261 300.124 50.2341ZM305.315 49.8748L303.697 43.0067L304.733 42.7628L305.032 43.7279C305.167 43.3223 305.392 42.9767 305.709 42.6913C306.032 42.3946 306.412 42.1949 306.848 42.0923C307.202 42.0088 307.532 41.9839 307.837 42.0175C308.149 42.0399 308.438 42.1254 308.703 42.2739C308.975 42.4112 309.21 42.6148 309.407 42.8846C309.545 42.4111 309.796 42.0116 310.161 41.6861C310.523 41.3515 310.936 41.1296 311.399 41.0205C311.935 40.8943 312.424 40.8942 312.866 41.0202C313.306 41.1372 313.686 41.3881 314.007 41.7728C314.326 42.1484 314.563 42.6679 314.719 43.331L315.685 47.4329L314.554 47.6992L313.617 43.72C313.454 43.0296 313.192 42.5449 312.829 42.266C312.466 41.9871 312.025 41.9086 311.508 42.0305C311.153 42.114 310.858 42.2842 310.621 42.5413C310.382 42.7893 310.223 43.1098 310.143 43.5026C310.063 43.8954 310.083 44.3507 310.205 44.8686L311.065 48.5207L309.921 48.7902L308.984 44.811C308.821 44.1206 308.558 43.6359 308.195 43.357C307.832 43.0781 307.397 42.9985 306.888 43.1183C306.543 43.1996 306.252 43.3688 306.015 43.6259C305.776 43.8739 305.617 44.1944 305.537 44.5872C305.456 44.98 305.477 45.4353 305.599 45.9532L306.459 49.6053L305.315 49.8748ZM320.502 46.4713C319.866 46.621 319.263 46.6048 318.692 46.4227C318.122 46.2405 317.633 45.9146 317.225 45.4449C316.815 44.9662 316.526 44.3679 316.357 43.6502C316.185 42.9234 316.173 42.2599 316.319 41.6598C316.475 41.0574 316.767 40.5475 317.196 40.1301C317.634 39.7105 318.18 39.4237 318.835 39.2696C319.507 39.1113 320.114 39.1265 320.657 39.315C321.2 39.5036 321.652 39.8143 322.013 40.2471C322.381 40.6687 322.633 41.1702 322.77 41.7516C322.792 41.8425 322.814 41.9379 322.838 42.0378C322.861 42.1378 322.883 42.2524 322.904 42.3817L317.276 43.707L317.068 42.8212L321.578 41.7591C321.403 41.1386 321.079 40.6972 320.605 40.4349C320.14 40.1705 319.617 40.1067 319.035 40.2436C318.654 40.3335 318.316 40.5088 318.023 40.7697C317.727 41.0214 317.52 41.3434 317.402 41.7357C317.281 42.1189 317.28 42.5649 317.4 43.0737L317.49 43.4552C317.623 44.0185 317.834 44.4674 318.124 44.8019C318.422 45.1342 318.758 45.3573 319.13 45.4711C319.511 45.5827 319.892 45.5936 320.274 45.5037C320.755 45.3904 321.126 45.1928 321.386 44.9111C321.652 44.6182 321.814 44.2684 321.872 43.8617L323.003 43.5954C322.983 44.0411 322.876 44.4596 322.68 44.8508C322.482 45.2329 322.202 45.5675 321.838 45.8546C321.483 46.1395 321.038 46.3451 320.502 46.4713ZM328.885 44.3247L326.638 34.7856L329.991 33.9962C330.663 33.8379 331.243 33.8164 331.73 33.9318C332.225 34.0359 332.625 34.2486 332.93 34.5697C333.234 34.8817 333.439 35.2649 333.546 35.7191C333.662 36.2097 333.649 36.6442 333.508 37.0226C333.376 37.3989 333.158 37.7139 332.853 37.9679C332.558 38.2196 332.223 38.4086 331.85 38.5348L332.009 38.3536C332.42 38.2664 332.823 38.2866 333.217 38.4143C333.612 38.542 333.95 38.7594 334.234 39.0667C334.526 39.3718 334.724 39.7424 334.826 40.1784C334.94 40.6599 334.925 41.1284 334.783 41.5837C334.639 42.03 334.363 42.4258 333.955 42.7711C333.555 43.1052 333.018 43.3514 332.346 43.5097L328.885 44.3247ZM329.805 43.1013L331.999 42.5846C332.644 42.4327 333.108 42.1652 333.392 41.7819C333.682 41.3875 333.764 40.9177 333.635 40.3726C333.509 39.8366 333.222 39.4535 332.775 39.2232C332.334 38.9817 331.792 38.9369 331.147 39.0888L328.98 39.599L329.805 43.1013ZM328.765 38.686L330.891 38.1854C331.509 38.04 331.942 37.7844 332.192 37.4188C332.45 37.0511 332.521 36.6174 332.403 36.1177C332.29 35.6362 332.035 35.2886 331.64 35.0749C331.253 34.8591 330.738 34.8271 330.093 34.979L328.008 35.47L328.765 38.686ZM339.301 42.0446C338.747 42.175 338.261 42.1888 337.843 42.0857C337.424 41.9735 337.086 41.7799 336.829 41.5047C336.57 41.2204 336.396 40.8875 336.306 40.5059C336.197 40.0426 336.223 39.6241 336.385 39.2505C336.553 38.8657 336.836 38.5402 337.233 38.274C337.638 37.9966 338.14 37.7873 338.74 37.6461L340.552 37.2193C340.452 36.7923 340.3 36.454 340.097 36.2045C339.902 35.9437 339.66 35.7706 339.371 35.6852C339.091 35.5976 338.765 35.5976 338.393 35.6853C337.957 35.788 337.606 35.9858 337.339 36.2787C337.072 36.5716 336.953 36.9401 336.981 37.3842L335.809 37.6602C335.748 37.1568 335.815 36.7094 336.011 36.3182C336.213 35.9158 336.508 35.578 336.894 35.3048C337.278 35.0226 337.702 34.8269 338.165 34.7178C338.801 34.568 339.356 34.5621 339.829 34.6999C340.31 34.8264 340.704 35.0741 341.011 35.4428C341.316 35.8024 341.535 36.2638 341.668 36.8271L342.669 41.0788L341.647 41.3195L341.293 40.1227C341.247 40.3349 341.172 40.5444 341.067 40.7512C340.97 40.9468 340.84 41.1307 340.679 41.3028C340.526 41.4637 340.335 41.6094 340.106 41.7398C339.878 41.8702 339.61 41.9718 339.301 42.0446ZM339.25 41.0353C339.568 40.9604 339.839 40.8294 340.064 40.6424C340.295 40.444 340.475 40.2099 340.603 39.94C340.729 39.661 340.804 39.37 340.829 39.067C340.863 38.7618 340.843 38.4548 340.77 38.1459L340.761 38.1051L339.044 38.5094C338.598 38.6142 338.252 38.7532 338.006 38.9264C337.757 39.0905 337.595 39.2819 337.522 39.5005C337.447 39.71 337.437 39.9328 337.493 40.169C337.55 40.4143 337.655 40.615 337.807 40.771C337.968 40.9249 338.169 41.0261 338.411 41.0747C338.661 41.1212 338.941 41.108 339.25 41.0353ZM347.572 40.0969C346.927 40.2488 346.31 40.2358 345.722 40.058C345.142 39.878 344.644 39.5542 344.227 39.0866C343.808 38.61 343.515 38.0174 343.348 37.3088C343.177 36.582 343.174 35.9163 343.338 35.3119C343.503 34.7074 343.804 34.1954 344.242 33.7758C344.687 33.345 345.232 33.0536 345.877 32.9017C346.695 32.7092 347.427 32.7622 348.072 33.0609C348.716 33.3504 349.194 33.8324 349.506 34.5068L348.334 34.7828C348.143 34.3772 347.842 34.098 347.432 33.9452C347.022 33.7924 346.576 33.7727 346.095 33.8861C345.704 33.9781 345.364 34.1636 345.075 34.4426C344.793 34.7104 344.594 35.0642 344.477 35.5041C344.369 35.9418 344.382 36.4468 344.517 37.0192C344.618 37.4462 344.766 37.8138 344.964 38.1222C345.159 38.4214 345.382 38.6565 345.633 38.8275C345.884 38.9985 346.156 39.112 346.447 39.168C346.745 39.2129 347.04 39.2011 347.33 39.1326C347.657 39.0556 347.941 38.9361 348.181 38.7741C348.419 38.6031 348.604 38.3917 348.736 38.1399C348.869 37.8882 348.934 37.614 348.931 37.3174L350.103 37.0415C350.12 37.7661 349.903 38.4118 349.451 38.9783C349.007 39.5337 348.38 39.9065 347.572 40.0969ZM356.463 37.8307L352.307 34.8397L354.559 31.03L355.963 30.6995L353.37 35.0207L353.191 34.1999L357.921 37.4874L356.463 37.8307ZM352.238 38.8255L349.928 29.0138L351.073 28.7443L353.383 38.556L352.238 38.8255ZM358.739 34.4325L356.995 27.6373L358.235 27.3453L359.707 34.2047L358.739 34.4325ZM359.871 37.1002C359.653 37.1515 359.449 37.1227 359.261 37.0137C359.079 36.8935 358.962 36.7244 358.911 36.5063C358.86 36.2883 358.89 36.0895 359.001 35.9099C359.119 35.7191 359.287 35.598 359.505 35.5467C359.741 35.491 359.946 35.5244 360.118 35.6468C360.298 35.7579 360.413 35.9225 360.465 36.1405C360.516 36.3585 360.487 36.5619 360.378 36.7506C360.276 36.928 360.107 37.0446 359.871 37.1002Z" fill="black"/>
<path d="M241.627 72.9683C238.391 73.7302 235.346 73.2277 232.49 71.4607C229.635 69.6938 227.826 67.1925 227.064 63.9569C226.303 60.7212 226.805 57.6757 228.572 54.8204C230.339 51.965 232.84 50.1563 236.076 49.3944C239.312 48.6325 242.357 49.135 245.212 50.902C248.068 52.6689 249.876 55.1702 250.638 58.4058C251.4 61.6415 250.898 64.687 249.131 67.5423C247.364 70.3977 244.863 72.2064 241.627 72.9683ZM229.082 63.4819C229.715 66.1713 231.213 68.2468 233.575 69.7086C235.937 71.1703 238.463 71.5845 241.152 70.9513C243.841 70.318 245.917 68.8203 247.379 66.4581C248.84 64.0959 249.255 61.5701 248.621 58.8808C247.983 56.1704 246.485 54.0949 244.128 52.6541C241.787 51.1875 239.261 50.7732 236.551 51.4114C233.862 52.0447 231.786 53.5424 230.324 55.9046C228.862 58.2668 228.448 60.7926 229.082 63.4819ZM235.79 58.7754C235.909 59.2797 235.832 59.7525 235.559 60.1938C235.302 60.6091 234.932 60.8736 234.448 60.9874C233.965 61.1012 233.505 61.0321 233.069 60.78C232.649 60.502 232.379 60.1109 232.26 59.6066C232.147 59.1234 232.218 58.6741 232.475 58.2588C232.753 57.8385 233.134 57.5715 233.617 57.4577C234.1 57.3439 234.55 57.4155 234.965 57.6725C235.401 57.9246 235.676 58.2922 235.79 58.7754ZM244.047 56.8311C244.166 57.3354 244.089 57.8081 243.816 58.2494C243.559 58.6647 243.189 58.9293 242.705 59.0431C242.222 59.1569 241.762 59.0877 241.326 58.8357C240.906 58.5577 240.636 58.1665 240.518 57.6623C240.404 57.179 240.475 56.7297 240.732 56.3144C241.01 55.8941 241.391 55.6271 241.874 55.5133C242.357 55.3995 242.807 55.4711 243.222 55.7281C243.658 55.9802 243.933 56.3479 244.047 56.8311ZM240.38 67.6736C239.099 67.9754 237.843 67.9163 236.613 67.4963C235.378 67.0552 234.375 66.3268 233.604 65.311L235.517 63.8294C236.021 64.4646 236.661 64.9236 237.438 65.2065C238.209 65.4684 239.004 65.5029 239.824 65.3099C240.622 65.1219 241.318 64.7362 241.913 64.1527C242.502 63.5482 242.881 62.8492 243.049 62.0557L245.391 62.5355C245.137 63.8147 244.565 64.9142 243.672 65.8339C242.801 66.7487 241.704 67.3619 240.38 67.6736Z" fill="#47AFFF"/>
</g>
<defs>
<clipPath id="clip0_660_1158">
<rect width="635.683" height="304" fill="white"/>
</clipPath>
</defs>
</svg>
