<svg width="25" height="25" viewBox="0 0 25 25" fill="none" xmlns="http://www.w3.org/2000/svg">
<g id="touch_app">
<mask id="mask0_456_7064" style="mask-type:alpha" maskUnits="userSpaceOnUse" x="0" y="0" width="25" height="25">
<rect id="Bounding box" x="0.695312" y="0.640625" width="24" height="24" fill="#D9D9D9"/>
</mask>
<g mask="url(#mask0_456_7064)">
<path id="touch_app_2" d="M11.5151 22.1407C11.01 22.1407 10.5324 22.0343 10.0824 21.8214C9.63243 21.6086 9.25614 21.3029 8.95358 20.9041L3.85938 14.3061L4.2286 13.9119C4.47858 13.6452 4.77761 13.4849 5.12568 13.4311C5.47376 13.3773 5.79972 13.4433 6.10355 13.6292L8.54012 14.9369V7.02536C8.54012 6.81286 8.61203 6.63474 8.75585 6.49099C8.89965 6.34724 9.07785 6.27537 9.29045 6.27537C9.50303 6.27537 9.68368 6.34724 9.8324 6.49099C9.98112 6.63474 10.0555 6.81286 10.0555 7.02536V17.5849L7.0535 15.9503L10.1728 20.0157C10.3369 20.2221 10.5369 20.3779 10.7728 20.483C11.0087 20.5882 11.2561 20.6407 11.5151 20.6407H16.4343C17.0612 20.6407 17.5946 20.4224 18.0343 19.9859C18.4741 19.5494 18.6939 19.0176 18.6939 18.3907V14.6215C18.6939 14.2782 18.5778 13.9905 18.3456 13.7582C18.1134 13.526 17.8257 13.4099 17.4824 13.4099H12.4401V11.91H17.4824C18.2356 11.91 18.8758 12.1736 19.4031 12.7008C19.9303 13.2281 20.1939 13.8683 20.1939 14.6215V18.39C20.1939 19.4264 19.8258 20.3106 19.0895 21.0426C18.3533 21.7747 17.4682 22.1407 16.4343 22.1407H11.5151ZM5.39783 9.27534C5.20039 8.94072 5.04976 8.58292 4.94592 8.20194C4.84207 7.82096 4.79015 7.42876 4.79015 7.02536C4.79015 5.77665 5.22797 4.71447 6.1036 3.83884C6.97923 2.96321 8.0414 2.52539 9.2901 2.52539C10.5388 2.52539 11.601 2.96321 12.4766 3.83884C13.3523 4.71447 13.7901 5.77624 13.7901 7.02414C13.7901 7.43007 13.7382 7.82311 13.6343 8.20324C13.5305 8.58336 13.3798 8.94072 13.1824 9.27534L11.8901 8.52537C12.0234 8.29203 12.1234 8.05453 12.1901 7.81287C12.2568 7.5712 12.2901 7.3087 12.2901 7.02536C12.2901 6.19203 11.9984 5.4837 11.4151 4.90036C10.8318 4.31703 10.1234 4.02536 9.2901 4.02536C8.45677 4.02536 7.74843 4.31703 7.1651 4.90036C6.58177 5.4837 6.2901 6.19203 6.2901 7.02536C6.2901 7.3087 6.32343 7.5712 6.3901 7.81287C6.45677 8.05453 6.55677 8.29203 6.6901 8.52537L5.39783 9.27534Z" fill="#1C1B1F"/>
</g>
</g>
</svg>
